<?xml version="1.0" encoding="UTF-8"?>
<svg width="132px" height="46px" viewBox="0 0 132 46" version="1.1" xmlns="http://www.w3.org/2000/svg" xmlns:xlink="http://www.w3.org/1999/xlink">
    <!-- Generator: Sketch 53 (72520) - https://sketchapp.com -->
    <title>Group 15</title>
    <desc>Created with Sketch.</desc>
    <g id="Page-1" stroke="none" stroke-width="1" fill="none" fill-rule="evenodd">
        <g id="case-1" transform="translate(-6054.000000, -1877.000000)">
            <g id="Group-15" transform="translate(6054.498396, 1873.000000)">
                <path d="M71.9919602,22.3146664 L71.99165,22.8341132 L71.9919602,22.3146664 Z" id="Path" fill="#A2A4BF" fill-rule="nonzero" transform="translate(71.991805, 22.574390) scale(-1, -1) rotate(-60.000000) translate(-71.991805, -22.574390) "></path>
                <text id="Proportion" font-family="Helvetica-Light, Helvetica" font-size="12" font-weight="300" fill="#333333">
                    <tspan x="41.5016044" y="47">Proportion</tspan>
                </text>
                <text id="Figure-projection" font-family="Helvetica-Light, Helvetica" font-size="12" font-weight="300" line-spacing="8" fill="#333333">
                    <tspan x="41.5016044" y="34">Figure projection</tspan>
                </text>
                <text id="Topic-weight" font-family="Helvetica-Light, Helvetica" font-size="12" font-weight="300" fill="#333333">
                    <tspan x="41.5016044" y="13">Topic weight</tspan>
                </text>
                <g id="Group" opacity="0.8" transform="translate(20.000000, 19.439422) rotate(38.000000) translate(-20.000000, -19.439422) translate(7.000000, 5.439422)" fill-rule="nonzero">
                    <g transform="translate(12.764526, 14.244748) rotate(140.869565) translate(-12.764526, -14.244748) translate(7.764526, 0.744748)" id="Path">
                        <path d="M4.51750667,3.74191565 C5.02886431,5.63402785 5.76998955,-0.316968598 6.19691664,1.37117026 C10.9413978,20.131617 10.4722554,26.5620548 4.78948954,26.5620548 C-0.887476992,26.5620548 -1.36145572,20.1447349 3.36755335,1.42856743 C3.79835384,-0.276427019 4.0003497,5.65548634 4.51750667,3.74191565 Z" stroke="#B4412C" stroke-width="0.565569"></path>
                        <path d="M4.5450109,2.6438529 C5.01530133,4.67647598 6.3877882,-0.843547936 6.76818045,0.936234348 C10.367732,17.7778445 9.23972381,23.5880582 4.78948954,23.5880582 C0.363263732,23.5880582 -0.746004537,17.4901489 2.79093459,0.857753863 C3.18592237,-0.999669353 4.050712,4.780242 4.5450109,2.6438529 Z" fill="#C36757"></path>
                    </g>
                </g>
                <g id="Group" opacity="0.8" transform="translate(19.681211, 32.083518) scale(1, -1) rotate(178.869565) translate(-19.681211, -32.083518) translate(14.681211, 18.083518)" fill-rule="nonzero">
                    <path d="M4.97684072,0.0306892553 C5.33150135,1.34299526 5.48609188,-0.422595649 5.80013848,0.790958473 C10.9708941,20.7720434 10.6365405,27.5619972 4.79707763,27.5619972 C-1.02538419,27.5619972 -1.3747453,20.8115225 3.74899428,0.965142307 C4.07605484,-0.301699648 4.60517904,1.40590208 4.97684072,0.0306892553 Z" id="Path" stroke="#B4412C" stroke-width="0.565569"></path>
                    <path d="M4.7387527,3.08966148 C5.06251014,4.34460722 6.27498658,-0.616108084 6.55613926,0.530552536 C10.5479964,16.8110494 9.3938449,22.2776316 4.79707763,22.2776316 C0.203058398,22.2776316 -0.633856927,16.7252394 3.35048245,0.467297331 C3.63365684,-0.688184771 4.41224724,4.3552591 4.7387527,3.08966148 Z" id="Path" fill="#C36757"></path>
                </g>
                <g id="Group" opacity="0.8" transform="translate(14.439712, 28.845134) scale(1, -1) rotate(142.869565) translate(-14.439712, -28.845134) translate(9.439712, 14.345134)" fill-rule="nonzero">
                    <path d="M4.75293979,4.08660669 C5.0568724,5.21121023 5.39761764,0.215246866 5.67172359,1.26717705 C10.9838759,21.6535034 10.6948566,28.5619396 4.80466573,28.5619396 C-1.08583653,28.5619396 -1.37457497,21.6527729 3.93845043,1.26394368 C4.21230607,0.213017792 4.44931856,5.21005802 4.75293979,4.08660669 Z" id="Path" stroke="#B4412C" stroke-width="0.565569"></path>
                    <path d="M4.90558252,2.70721902 C5.19341785,3.77225979 5.36349893,0.0913749171 5.61765932,1.07456176 C9.70835297,16.8988847 9.43735511,22.278557 4.80466573,22.278557 C0.205662237,22.278557 -0.0948498512,16.9768351 3.90312947,1.41809926 C4.18263244,0.330371553 4.58406132,3.89690339 4.90558252,2.70721902 Z" id="Path" fill="#C36757"></path>
                </g>
                <g id="Group" opacity="0.8" transform="translate(15.360117, 22.941755) rotate(130.869565) translate(-15.360117, -22.941755) translate(10.360117, 8.941755)" fill-rule="nonzero">
                    <path d="M5.2284541,4.30894998 C5.63751272,5.822538 5.58818074,-0.036576655 5.94321106,1.3459357 C10.964187,20.8979589 10.5821425,27.5619972 4.79707764,27.5619972 C-1.03098594,27.5619972 -1.37541247,20.798527 3.76379804,0.907823676 C4.08659119,-0.34150883 4.86239418,5.66343533 5.2284541,4.30894998 Z" id="Path" stroke="#B4412C" stroke-width="0.565569"></path>
                    <path d="M4.5980169,2.13772951 C4.97613715,3.74463852 6.28139063,-0.0166591293 6.60139719,1.42876795 C10.4456748,18.7928589 9.3394821,24.3821883 4.79707764,24.3821883 C0.216471513,24.3821883 -0.853505864,18.7843965 3.09422747,1.08011593 C3.38718169,-0.233687023 4.25809833,3.58229173 4.5980169,2.13772951 Z" id="Path" fill="#C36757"></path>
                </g>
                <g id="Group" opacity="0.8" transform="translate(14.120813, 26.328014) rotate(88.869565) translate(-14.120813, -26.328014) translate(9.120813, 12.328014)" fill-rule="nonzero">
                    <path d="M5.2284541,4.30894998 C5.63751272,5.822538 5.58818074,-0.036576655 5.94321106,1.3459357 C10.964187,20.8979589 10.5821425,27.5619972 4.79707764,27.5619972 C-1.03098594,27.5619972 -1.37541247,20.798527 3.76379804,0.907823676 C4.08659119,-0.34150883 4.86239418,5.66343533 5.2284541,4.30894998 Z" id="Path" stroke="#B4412C" stroke-width="0.565569"></path>
                    <path d="M4.5980169,1.91071069 C4.97613715,3.30982135 5.52426129,-0.270570264 5.84426785,0.987940585 C9.6885455,16.1065842 9.3394821,21.2786146 4.79707764,21.2786146 C0.216471513,21.2786146 -0.0999648861,16.0192248 3.84776844,0.604383355 C4.14072266,-0.539524421 4.25809833,3.16846853 4.5980169,1.91071069 Z" id="Path" fill="#C36757"></path>
                </g>
                <path d="M17.2635357,31.2507967 L17.2540572,32.1325334 L17.2635357,31.2507967 Z" id="Path" fill="#A2A4BF" fill-rule="nonzero" transform="translate(17.258796, 31.691665) scale(-1, -1) rotate(-60.000000) translate(-17.258796, -31.691665) "></path>
                <path d="M12.9045536,32.1622536 L12.8950751,33.0439903 L12.9045536,32.1622536 Z" id="Path" fill="#A2A4BF" fill-rule="nonzero" transform="translate(12.899814, 32.603122) scale(-1, -1) rotate(-60.000000) translate(-12.899814, -32.603122) "></path>
                <path d="M12.4492646,26.9398532 L12.439786,27.82159 L12.4492646,26.9398532 Z" id="Path" fill="#A2A4BF" fill-rule="nonzero" transform="translate(12.444525, 27.380722) scale(-1, -1) rotate(-60.000000) translate(-12.444525, -27.380722) "></path>
                <path d="M26.0436563,30.3437957 L26.0311988,31.5026497 L26.0436563,30.3437957 Z" id="Path" fill="#A2A4BF" fill-rule="nonzero" transform="translate(26.037428, 30.923223) scale(-1, -1) rotate(-60.000000) translate(-26.037428, -30.923223) "></path>
                <g id="Group-170" transform="translate(12.308609, 17.510920)" fill-rule="nonzero">
                    <ellipse id="Oval" stroke="#B4412C" stroke-width="0.715" fill="#ffffff" cx="7.8515625" cy="8.04770115" rx="7.8515625" ry="8.04770115"></ellipse>
                    <path d="M6.51147587,10.7754178 C6.68786438,10.7734757 6.84981356,10.8649828 6.93631871,11.0154694 C7.02282387,11.165956 7.02074281,11.3525595 6.93085945,11.5049882 C6.84097609,11.6574169 6.67694586,11.7525133 6.50055735,11.7544554 C6.32416884,11.7563976 6.16221966,11.6648904 6.0757145,11.5144038 C5.98920935,11.3639172 5.99129041,11.1773137 6.08117377,11.024885 C6.17105713,10.8724563 6.33508736,10.77736 6.51147587,10.7754178 L6.51147587,10.7754178 Z" id="Path" fill="#DFC3A3" transform="translate(6.506017, 11.264937) scale(-1, -1) rotate(-60.000000) translate(-6.506017, -11.264937) "></path>
                    <path d="M3.7070231,7.22362213 C3.56564455,7.47484461 3.25167819,7.5604186 3.0057596,7.41475699 C2.75984101,7.26909539 2.67509455,6.94735726 2.8164731,6.69613478 C2.95785164,6.4449123 3.27181801,6.3593383 3.5177366,6.50499991 C3.76365519,6.65066152 3.84840164,6.97239965 3.7070231,7.22362213 Z" id="Path" fill="#DFC3A3"></path>
                    <path d="M4.09204085,11.2817828 C4.26842936,11.2798406 4.43037854,11.3713478 4.51688369,11.5218344 C4.60338885,11.6723209 4.60130779,11.8589245 4.51142443,12.0113532 C4.42154107,12.1637819 4.25751084,12.2588782 4.08112233,12.2608204 C3.90473382,12.2627625 3.74278464,12.1712553 3.65627948,12.0207688 C3.56977433,11.8702822 3.57185539,11.6836787 3.66173875,11.53125 C3.75162211,11.3788212 3.91565234,11.2837249 4.09204085,11.2817828 L4.09204085,11.2817828 Z" id="Path" fill="#DFC3A3" transform="translate(4.086582, 11.771302) scale(-1, -1) rotate(-60.000000) translate(-4.086582, -11.771302) "></path>
                    <path d="M3.83933457,8.38044923 C4.01572308,8.37850709 4.17767225,8.47001425 4.26417741,8.62050083 C4.35068256,8.77098741 4.3486015,8.95759092 4.25871814,9.11001963 C4.16883479,9.26244834 4.00480455,9.35754469 3.82841604,9.35948682 C3.65202753,9.36142895 3.49007835,9.2699218 3.4035732,9.11943522 C3.31706804,8.96894864 3.3191491,8.78234512 3.40903246,8.62991642 C3.49891582,8.47748771 3.66294606,8.38239135 3.83933457,8.38044923 L3.83933457,8.38044923 Z" id="Path" fill="#DFC3A3" transform="translate(3.833875, 8.869968) scale(-1, -1) rotate(-60.000000) translate(-3.833875, -8.869968) "></path>
                    <path d="M5.34342576,5.48407101 C5.25691344,5.63779901 5.09669133,5.73229753 4.92311355,5.7319699 C4.74953578,5.73164227 4.58897292,5.63653826 4.50190747,5.48248264 C4.41484201,5.32842701 4.41450127,5.13882448 4.5010136,4.98509649 C4.58752592,4.83136849 4.74774802,4.73686997 4.9213258,4.7371976 C5.09490358,4.73752523 5.25546643,4.83262923 5.34253189,4.98668486 C5.42959734,5.14074049 5.42993808,5.33034302 5.34342576,5.48407101 L5.34342576,5.48407101 Z" id="Path" fill="#DFC3A3"></path>
                    <path d="M12.8292975,9.67971535 C13.005686,9.67777322 13.1676352,9.76928038 13.2541404,9.91976696 C13.3406455,10.0702535 13.3385645,10.256857 13.2486811,10.4092858 C13.1587978,10.5617145 12.9947675,10.6568108 12.818379,10.6587529 C12.6419905,10.6606951 12.4800413,10.5691879 12.3935362,10.4187013 C12.307031,10.2682148 12.3091121,10.0816113 12.3989954,9.92918254 C12.4888788,9.77675384 12.652909,9.68165748 12.8292975,9.67971535 L12.8292975,9.67971535 Z" id="Path" fill="#DFC3A3" transform="translate(12.823838, 10.169234) scale(-1, -1) rotate(-60.000000) translate(-12.823838, -10.169234) "></path>
                    <path d="M9.07345979,7.56624866 C9.2498483,7.56430652 9.41179748,7.65581368 9.49830263,7.80630026 C9.58480779,7.95678684 9.58272673,8.14339035 9.49284337,8.29581906 C9.40296001,8.44824777 9.23892978,8.54334412 9.06254127,8.54528625 C8.88615276,8.54722838 8.72420358,8.45572123 8.63769842,8.30523465 C8.55119327,8.15474807 8.55327433,7.96814455 8.64315769,7.81571585 C8.73304105,7.66328714 8.89707128,7.56819078 9.07345979,7.56624866 L9.07345979,7.56624866 Z" id="Path" fill="#DFC3A3" transform="translate(9.068001, 8.055767) scale(-1, -1) rotate(-60.000000) translate(-9.068001, -8.055767) "></path>
                    <path d="M4.95729511,7.47258741 C5.13368362,7.47064528 5.2956328,7.56215243 5.38213795,7.71263901 C5.4686431,7.86312559 5.46656205,8.0497291 5.37667869,8.20215781 C5.28679533,8.35458652 5.12276509,8.44968288 4.94637658,8.451625 C4.76998807,8.45356714 4.6080389,8.36205998 4.52153374,8.2115734 C4.43502859,8.06108682 4.43710965,7.87448331 4.52699301,7.7220546 C4.61687636,7.56962589 4.7809066,7.47452953 4.95729511,7.47258741 L4.95729511,7.47258741 Z" id="Path" fill="#DFC3A3" transform="translate(4.951836, 7.962106) scale(-1, -1) rotate(-60.000000) translate(-4.951836, -7.962106) "></path>
                    <path d="M9.81881579,8.31422734 C10.0992795,8.31113929 10.3241262,8.53406282 10.3210249,8.81214098 C10.3179237,9.09021914 10.088049,9.31814938 9.80758531,9.32123743 C9.52712164,9.32432548 9.30227495,9.10140196 9.30537616,8.8233238 C9.30847737,8.54524564 9.53835213,8.31731539 9.81881579,8.31422734 Z" id="Path" fill="#DFC3A3" transform="translate(9.813201, 8.817732) scale(-1, -1) rotate(-60.000000) translate(-9.813201, -8.817732) "></path>
                    <path d="M10.7977506,10.1087637 C11.0782143,10.1056757 11.303061,10.3285992 11.2999598,10.6066773 C11.2968586,10.8847555 11.0669838,11.1126858 10.7865202,11.1157738 C10.5060565,11.1188619 10.2812098,10.8959383 10.284311,10.6178602 C10.2874122,10.339782 10.517287,10.1118518 10.7977506,10.1087637 Z" id="Path" fill="#DFC3A3" transform="translate(10.792135, 10.612269) scale(-1, -1) rotate(-60.000000) translate(-10.792135, -10.612269) "></path>
                    <path d="M8.70635966,5.87575783 C8.88274817,5.8738157 9.04469734,5.96532285 9.1312025,6.11580943 C9.21770765,6.26629601 9.21562659,6.45289952 9.12574323,6.60532823 C9.03585988,6.75775694 8.87182964,6.8528533 8.69544113,6.85479542 C8.51905262,6.85673755 8.35710344,6.7652304 8.27059829,6.61474382 C8.18409313,6.46425724 8.18617419,6.27765373 8.27605755,6.12522502 C8.36594091,5.97279631 8.52997115,5.87769995 8.70635966,5.87575783 L8.70635966,5.87575783 Z" id="Path" fill="#DFC3A3" transform="translate(8.700900, 6.365277) scale(-1, -1) rotate(-60.000000) translate(-8.700900, -6.365277) "></path>
                    <path d="M9.06628483,10.8346863 C9.24267334,10.8327441 9.40462252,10.9242513 9.49112767,11.0747379 C9.57763282,11.2252245 9.57555176,11.411828 9.48566841,11.5642567 C9.39578505,11.7166854 9.23175481,11.8117817 9.0553663,11.8137239 C8.87897779,11.815666 8.71702861,11.7241588 8.63052346,11.5736723 C8.5440183,11.4231857 8.54609936,11.2365822 8.63598272,11.0841535 C8.72586608,10.9317248 8.88989632,10.8366284 9.06628483,10.8346863 L9.06628483,10.8346863 Z" id="Path" fill="#DFC3A3" transform="translate(9.060826, 11.324205) scale(-1, -1) rotate(-60.000000) translate(-9.060826, -11.324205) "></path>
                    <path d="M6.98955561,3.16118461 C6.90304329,3.3149126 6.74282118,3.40941113 6.56924341,3.4090835 C6.39566563,3.40875587 6.23510277,3.31365186 6.14803732,3.15959624 C6.06097187,3.00554061 6.06063112,2.81593808 6.14714345,2.66221009 C6.23365577,2.50848209 6.39387787,2.41398357 6.56745565,2.41431119 C6.74103343,2.41463882 6.90159629,2.50974283 6.98866174,2.66379846 C7.07572719,2.81785408 7.07606794,3.00745661 6.98955561,3.16118461 L6.98955561,3.16118461 Z" id="Path" fill="#DFC3A3"></path>
                    <path d="M8.80732992,9.85007899 C9.08779358,9.84699094 9.31264027,10.0699145 9.30953906,10.3479926 C9.30643785,10.6260708 9.0765631,10.854001 8.79609943,10.8570891 C8.51563576,10.8601771 8.29078907,10.6372536 8.29389028,10.3591754 C8.2969915,10.0810973 8.52686625,9.85316704 8.80732992,9.85007899 Z" id="Path" fill="#DFC3A3" transform="translate(8.801715, 10.353584) scale(-1, -1) rotate(-60.000000) translate(-8.801715, -10.353584) "></path>
                </g>
                <path d="M14.4100834,20.3961615 L14.4006048,21.2778983 L14.4100834,20.3961615 Z" id="Path" fill="#A2A4BF" fill-rule="nonzero" transform="translate(14.405344, 20.837030) scale(-1, -1) rotate(-60.000000) translate(-14.405344, -20.837030) "></path>
                <path d="M21.8793415,25.4742922 L21.8698629,26.3560289 L21.8793415,25.4742922 Z" id="Path" fill="#A2A4BF" fill-rule="nonzero" transform="translate(21.874602, 25.915161) scale(-1, -1) rotate(-60.000000) translate(-21.874602, -25.915161) "></path>
                <path d="M23.8117534,30.6214327 L23.8022748,31.5031695 L23.8117534,30.6214327 Z" id="Path" fill="#A2A4BF" fill-rule="nonzero" transform="translate(23.807014, 31.062301) scale(-1, -1) rotate(-60.000000) translate(-23.807014, -31.062301) "></path>
                <path d="M14.4634415,25.3057019 L14.4539629,26.1874387 L14.4634415,25.3057019 Z" id="Path" fill="#A2A4BF" fill-rule="nonzero" transform="translate(14.458702, 25.746570) scale(-1, -1) rotate(-60.000000) translate(-14.458702, -25.746570) "></path>
                <path d="M23.2329096,26.8396482 L23.2231602,27.7465774 L23.2329096,26.8396482 Z" id="Path" fill="#A2A4BF" fill-rule="nonzero" transform="translate(23.228035, 27.293113) scale(-1, -1) rotate(-60.000000) translate(-23.228035, -27.293113) "></path>
                <path d="M21.2179544,22.4314087 L21.2084759,23.3131454 L21.2179544,22.4314087 Z" id="Path" fill="#A2A4BF" fill-rule="nonzero" transform="translate(21.213215, 22.872277) scale(-1, -1) rotate(-60.000000) translate(-21.213215, -22.872277) "></path>
                <path d="M21.8664147,31.3574799 L21.8569361,32.2392167 L21.8664147,31.3574799 Z" id="Path" fill="#A2A4BF" fill-rule="nonzero" transform="translate(21.861675, 31.798348) scale(-1, -1) rotate(-60.000000) translate(-21.861675, -31.798348) "></path>
                <path d="M17.375838,16.214966 L17.3663594,17.0967027 L17.375838,16.214966 Z" id="Path" fill="#A2A4BF" fill-rule="nonzero" transform="translate(17.371099, 16.655834) scale(-1, -1) rotate(-60.000000) translate(-17.371099, -16.655834) "></path>
                <path d="M21.4105632,29.6041812 L21.4008138,30.5111104 L21.4105632,29.6041812 Z" id="Path" fill="#A2A4BF" fill-rule="nonzero" transform="translate(21.405688, 30.057646) scale(-1, -1) rotate(-60.000000) translate(-21.405688, -30.057646) "></path>
                <path d="M23.6286066,27 L38.6286066,27" id="Path-57" stroke="#979797" stroke-width="0.5" stroke-linecap="round" stroke-linejoin="round" stroke-dasharray="2"></path>
                <path d="M22.8746022,39.5 L39.0016044,43" id="Path-57" stroke="#979797" stroke-width="0.5" stroke-linecap="round" stroke-linejoin="round" stroke-dasharray="2"></path>
                <path d="M21.5016044,5.5 L38.6207012,5.5" id="Path-57" stroke="#979797" stroke-width="0.5" stroke-linecap="round" stroke-linejoin="round" stroke-dasharray="2"></path>
            </g>
        </g>
    </g>
</svg>