<svg xmlns="http://www.w3.org/2000/svg" viewBox="0 0 24.31 17.55">
  <defs>
    <style>
      .cls-1, .cls-2 {
        fill: #b7d9ce;
      }

      .cls-2 {
        fill-opacity: 0.4;
      }
    </style>
  </defs>
  <title>leaf3</title>
  <g id="图层_2" data-name="图层 2">
    <g id="图层_1-2" data-name="图层 1">
      <g id="Page-1">
        <g id="Desktop-HD">
          <g id="Group-119">
            <g id="资源-2">
              <path id="Path" class="cls-1" d="M12.66,17c1.18-2.29-.21-4.67-1.78-6.3A13.28,13.28,0,0,0,7.66,8.29c-1.08-.59-2.24-1-3.37-1.52A10.22,10.22,0,0,1,.91,4.6a.53.53,0,0,0-.84.27,9.5,9.5,0,0,0,1.68,6.71A9.38,9.38,0,0,0,4.31,14a15.41,15.41,0,0,0,3.48,1.52,13.55,13.55,0,0,1,3.82,1.72c.44.32,1-.29.61-.64-1.88-1.55-4.49-1.88-6.64-3A8.73,8.73,0,0,1,1.42,8.73a7.86,7.86,0,0,1-.36-3.68l-.92.18C1.72,7,4.15,7.68,6.31,8.66a11.81,11.81,0,0,1,5.54,4.68,4.32,4.32,0,0,1,.5,3.58c-.06.18.23.26.31.1Z"/>
              <polygon id="Path-6" strokeWidth="0.05" stroke="#277077" class="cls-2" points="0.8 5.69 0.77 7.97 1.23 9.48 2.38 11.35 4.17 13.34 6.37 14.27 8.55 15.3 11.59 16.54 12.05 16.86 12.46 16.86 12.87 15.55 12.1 13.23 10.39 11.22 8.63 9.38 6.51 8.47 4.25 7.44 2.45 6.57 0.8 5.69"/>
            </g>
          </g>
        </g>
      </g>
      <g id="Page-1-2" data-name="Page-1">
        <g id="Desktop-HD-2" data-name="Desktop-HD">
          <g id="Group-119-2" data-name="Group-119">
            <g id="资源-2-2" data-name="资源-2">
              <path id="Path-2" data-name="Path" class="cls-1" d="M12.35,17.54c2.41-.89,3-3.58,2.93-5.85a13.28,13.28,0,0,0-.74-4c-.4-1.16-1-2.26-1.46-3.39a10.22,10.22,0,0,1-1-3.89.53.53,0,0,0-.8-.36A9.5,9.5,0,0,0,8,6.17,9.38,9.38,0,0,0,8.21,9.7a15.41,15.41,0,0,0,1.54,3.47A13.55,13.55,0,0,1,11.41,17c.11.54,1,.48.88-.06-.34-2.41-2.05-4.42-2.87-6.7a8.73,8.73,0,0,1,.23-6.41,7.86,7.86,0,0,1,2.21-3L11.06.4c0,2.38,1.31,4.52,2.24,6.69a11.81,11.81,0,0,1,.93,7.19,4.32,4.32,0,0,1-2,3c-.16.09,0,.35.16.28Z"/>
              <polygon id="Path-6-2" strokeWidth="0.05" stroke="#277077" data-name="Path-6" class="cls-2" points="11.24 1.18 9.68 2.84 9 4.26 8.59 6.42 8.57 9.1 9.57 11.27 10.47 13.5 11.89 16.47 12.01 17.02 12.32 17.29 13.5 16.6 14.49 14.37 14.59 11.73 14.53 9.18 13.58 7.08 12.61 4.8 11.87 2.94 11.24 1.18"/>
            </g>
          </g>
        </g>
      </g>
      <g id="Page-1-3" data-name="Page-1">
        <g id="Desktop-HD-3" data-name="Desktop-HD">
          <g id="Group-119-3" data-name="Group-119">
            <g id="资源-2-3" data-name="资源-2">
              <path id="Path-3" data-name="Path" class="cls-1" d="M12.28,17c.09.16.38.06.31-.12a4.32,4.32,0,0,1,.29-3.6,11.81,11.81,0,0,1,5.26-5c2.1-1.09,4.48-1.91,6-3.77l-.93-.13A7.86,7.86,0,0,1,23,8.09a8.73,8.73,0,0,1-3.87,5.12c-2.08,1.25-4.67,1.73-6.46,3.38-.4.37.22.95.64.6a13.55,13.55,0,0,1,3.72-1.93,15.41,15.41,0,0,0,3.39-1.72A9.38,9.38,0,0,0,22.86,11a9.5,9.5,0,0,0,1.29-6.8.53.53,0,0,0-.85-.22A10.22,10.22,0,0,1,20,6.29C19,6.85,17.82,7.35,16.77,8a13.28,13.28,0,0,0-3.07,2.6C12.22,12.32,11,14.78,12.28,17Z"/>
              <polygon id="Path-6-3" strokeWidth="0.05" stroke="#277077" data-name="Path-6" class="cls-2" points="21.88 5.98 20.13 6.96 17.93 8.12 15.87 9.14 14.21 11.08 12.62 13.19 11.98 15.54 12.46 16.83 12.88 16.81 13.32 16.46 16.29 15.05 18.4 13.89 20.55 12.84 22.22 10.75 23.26 8.82 23.64 7.29 23.48 5.02 21.88 5.98"/>
            </g>
          </g>
        </g>
      </g>
    </g>
  </g>
</svg>
