<svg xmlns="http://www.w3.org/2000/svg" viewBox="0 0 19.35 13.68">
  <defs>
    <style>
      .cls-1 {
        fill: #b9ddd2;
        stroke: #070707;
        stroke-miterlimit: 10;
        stroke-width: 0.5px;
      }
    </style>
  </defs>
  <title>paintSvg_1</title>
  <g id="图层_2" data-name="图层 2">
    <g id="图层_1-2" data-name="图层 1">
      <path class="cls-1" d="M.38,3.89a6.8,6.8,0,0,0,3.45,2A11.14,11.14,0,0,1,7.65,8.29a6.77,6.77,0,0,1,1.71,2.64,2.75,2.75,0,0,1,.11,1.46l-.22.72c0,.1-1.06-.59-1.06-.59a11.09,11.09,0,0,0-2.83-1.09s-2.85-1-3.58-2.34A6.82,6.82,0,0,1,.48,6.55,5.47,5.47,0,0,1,.38,3.89Z"/>
      <path class="cls-1" d="M9.94.45a6.8,6.8,0,0,0,.87,3.92,11.14,11.14,0,0,1,.9,4.39,6.77,6.77,0,0,1-.76,3.05,2.75,2.75,0,0,1-1,1.07l-.67.33C9.19,13.26,9,12,9,12A11.09,11.09,0,0,0,7.85,9.22S6.62,6.46,7.11,5a6.82,6.82,0,0,1,1-2.67A5.47,5.47,0,0,1,9.94.45Z"/>
      <path class="cls-1" d="M18.8,4.61A6.8,6.8,0,0,0,16.62,8a11.14,11.14,0,0,1-2.49,3.72,6.77,6.77,0,0,1-2.71,1.6,2.75,2.75,0,0,1-1.46.05l-.71-.25c-.1,0,.63-1,.63-1a11.09,11.09,0,0,0,1.2-2.79s1.1-2.81,2.49-3.49a6.82,6.82,0,0,1,2.57-1.2A5.47,5.47,0,0,1,18.8,4.61Z"/>
    </g>
  </g>
</svg>
