<?xml version="1.0" encoding="UTF-8"?>
<svg width="14px" height="13px" viewBox="0 0 14 13" version="1.1" xmlns="http://www.w3.org/2000/svg" xmlns:xlink="http://www.w3.org/1999/xlink">
    <!-- Generator: Sketch 53 (72520) - https://sketchapp.com -->
    <title>资源 2</title>
    <desc>Created with Sketch.</desc>
    <g id="Page-1" stroke="none" stroke-width="1" fill="none" fill-rule="evenodd">
        <g id="Desktop-HD" transform="translate(-4319.000000, -2770.000000)" fill-opacity="0.4" fill="#71a3ca">
            <g id="Group-119" transform="translate(4188.000000, 2721.000000)">
                <g id="资源-2" transform="translate(138.000000, 55.500000) rotate(72.000000) translate(-138.000000, -55.500000) translate(130.000000, 50.000000)">
                    <path d="M15.8150566,1.18888636 C14.0046137,-0.640909091 11.3148975,-0.0576818182 9.27166221,0.937329545 C8.07261028,1.52627412 6.96084921,2.30379347 5.97253405,3.24460227 C5.08288151,4.08739773 4.31036655,5.058375 3.49040346,5.97647727 C2.57257859,7.00513636 1.59692631,7.93445455 0.376619575,8.52248864 C0.0726549574,8.66989773 0.0652411862,9.25632955 0.376619575,9.40053409 C2.5550178,10.4236307 4.99543274,10.5936216 7.27735777,9.88121591 C8.40097587,9.53029115 9.45610009,8.96129039 10.3911417,8.20203409 C11.3682767,7.40089773 12.1482054,6.39627273 12.9118239,5.36440909 C13.7480972,4.23 14.5977154,3.07315909 15.7290569,2.26080682 C16.1738832,1.94035227 15.7750223,1.19209091 15.3109202,1.48851136 C13.2558228,2.79596591 12.1363434,5.18175 10.3970727,6.87695455 C8.78976709,8.44397727 6.61901489,9.28036364 4.46605575,9.31240909 C3.22276593,9.34158972 1.98901795,9.07177642 0.854066438,8.52248864 L0.741377116,9.45340909 C2.91657757,8.49204545 4.31184931,6.39627273 5.90432735,4.64659091 C7.56204658,2.81679545 9.71797124,1.29463636 12.0681367,0.825170455 C13.2810297,0.583227273 14.5888189,0.656931818 15.6267468,1.45806818 C15.7750223,1.57182955 15.9485045,1.32027273 15.8180221,1.19048864 L15.8150566,1.18888636 Z" id="Path" fill-rule="nonzero"></path>
                    <polygon id="Path-6" strokeWidth="0.05" stroke="#164a73" fill-opacity="0.4" points="1.38049532 8.96827652 3.53786985 9.70276324 5.11468273 9.72754322 7.25003243 9.20846564 9.69691661 8.12405766 11.2609254 6.31524147 12.9166699 4.56708621 15.0312569 2.05522961 15.4826007 1.7202152 15.6057736 1.32300428 14.4880235 0.530811607 12.0455683 0.550063873 9.60253823 1.55154291 7.30712595 2.65729472 5.78990165 4.39325931 4.11346435 6.22314918 2.72371426 7.66746265"></polygon>
                </g>
            </g>
        </g>
    </g>
</svg>