<svg xmlns="http://www.w3.org/2000/svg" viewBox="0 0 16.05 17.67">
  <defs>
    <style>
      .cls-1, .cls-2 {
        fill: #71a3ca;
      }

      .cls-2 {
        fill-opacity: 0.4;
      }
    </style>
  </defs>
  <title>leaf2</title>
  <g id="图层_2" data-name="图层 2">
    <g id="图层_1-2" data-name="图层 1">
      <g id="Page-1">
        <g id="Desktop-HD">
          <g id="Group-119">
            <g id="资源-2">
              <path id="Path" class="cls-1" d="M12.66,17.33c1.18-2.29-.21-4.67-1.78-6.3A13.28,13.28,0,0,0,7.66,8.61C6.58,8,5.42,7.58,4.29,7.09A10.22,10.22,0,0,1,.91,4.91a.53.53,0,0,0-.84.27A9.5,9.5,0,0,0,1.75,11.9a9.38,9.38,0,0,0,2.56,2.44,15.41,15.41,0,0,0,3.48,1.52,13.55,13.55,0,0,1,3.82,1.72c.44.32,1-.29.61-.64-1.88-1.55-4.49-1.88-6.64-3A8.73,8.73,0,0,1,1.42,9a7.86,7.86,0,0,1-.36-3.68l-.92.18C1.72,7.32,4.15,8,6.31,9a11.81,11.81,0,0,1,5.54,4.68,4.32,4.32,0,0,1,.5,3.58c-.06.18.23.26.31.1Z"/>
              <polygon id="Path-6" strokeWidth="0.05" stroke="#164a73" class="cls-2" points="0.8 6.01 0.77 8.29 1.23 9.79 2.38 11.66 4.17 13.65 6.37 14.58 8.55 15.62 11.59 16.85 12.05 17.18 12.46 17.17 12.87 15.87 12.1 13.55 10.39 11.53 8.63 9.69 6.51 8.79 4.25 7.76 2.45 6.88 0.8 6.01"/>
            </g>
          </g>
        </g>
      </g>
      <g id="Page-1-2" data-name="Page-1">
        <g id="Desktop-HD-2" data-name="Desktop-HD">
          <g id="Group-119-2" data-name="Group-119">
            <g id="资源-2-2" data-name="资源-2">
              <path id="Path-2" data-name="Path" class="cls-1" d="M12.31,17.5c2.51-.57,3.44-3.16,3.68-5.42a13.28,13.28,0,0,0-.21-4c-.24-1.2-.66-2.37-1-3.55a10.22,10.22,0,0,1-.51-4,.53.53,0,0,0-.74-.47,9.5,9.5,0,0,0-4.07,5.6,9.38,9.38,0,0,0-.23,3.53,15.41,15.41,0,0,0,1.07,3.64,13.55,13.55,0,0,1,1.14,4c0,.55.88.61.88.05,0-2.44-1.45-4.65-2-7a8.73,8.73,0,0,1,1.08-6.32A7.86,7.86,0,0,1,14,.93L13.29.34C12.95,2.69,14,5,14.63,7.26a11.81,11.81,0,0,1,0,7.25,4.32,4.32,0,0,1-2.42,2.68c-.18.07-.05.35.13.3Z"/>
              <polygon id="Path-6-2" strokeWidth="0.05" stroke="#164a73" data-name="Path-6" class="cls-2" points="13.36 1.14 11.59 2.58 10.74 3.9 10.04 5.99 9.67 8.64 10.37 10.92 10.98 13.25 11.99 16.38 12.03 16.94 12.3 17.25 13.57 16.72 14.85 14.64 15.29 12.04 15.57 9.51 14.9 7.3 14.24 4.91 13.75 2.96 13.36 1.14"/>
            </g>
          </g>
        </g>
      </g>
    </g>
  </g>
</svg>
