<?xml version="1.0" encoding="UTF-8"?>
<svg width="24px" height="22px" viewBox="0 0 24 22" version="1.1" xmlns="http://www.w3.org/2000/svg" xmlns:xlink="http://www.w3.org/1999/xlink">
    <!-- Generator: Sketch 53 (72520) - https://sketchapp.com -->
    <title>Group 116</title>
    <desc>Created with Sketch.</desc>
    <g id="Page-1" stroke="none" stroke-width="1" fill="none" fill-rule="evenodd">
        <g id="Desktop-HD" transform="translate(-3878.000000, -2650.000000)" fill="#c36958" fill-rule="nonzero">
            <g id="Group-116" transform="translate(3878.000000, 2650.000000)">
                <path d="M2.67992767,21.5686275 C0.951820985,21.5686275 -6.91002811e-13,20.6931466 -6.91002811e-13,19.1036415 L-6.91002811e-13,6.77871148 C-6.91002811e-13,5.18920636 0.951820985,4.31372549 2.67992767,4.31372549 L11.5683544,4.31372549 C11.8150349,4.31372549 12.015009,4.4976608 12.015009,4.7245565 C12.015009,4.9514522 11.8150349,5.1353875 11.5683544,5.1353875 L2.67992767,5.1353875 C1.44403435,5.1353875 0.893309214,5.64194213 0.893309214,6.77871148 L0.893309214,19.1036415 C0.893309214,20.2404108 1.44403435,20.7469655 2.67992767,20.7469655 L16.079566,20.7469655 C17.3154593,20.7469655 17.8661845,20.2404108 17.8661844,19.1036415 L17.8661844,11.1540616 C17.8661844,10.9271659 18.0661585,10.7432306 18.3128391,10.7432306 C18.5595196,10.7432306 18.7594937,10.9271659 18.7594937,11.1540616 L18.7594937,19.1036415 C18.7594937,20.6931466 17.8076727,21.5686275 16.079566,21.5686275 L2.67992767,21.5686275 Z" id="Path"></path>
                <path d="M18.0379747,10.0653595 C17.5730768,10.0653595 17.1962025,9.6898249 17.1962025,9.22657953 L17.1962025,5.87145969 L13.8291139,5.87145969 C13.364216,5.87145967 12.9873418,5.4959251 12.9873418,5.03267974 C12.9873418,4.56943437 13.364216,4.1938998 13.8291139,4.19389979 L17.1962025,4.19389979 L17.1962025,0.838779948 C17.1962025,0.375534574 17.5730768,2.71782596e-13 18.0379747,2.71782596e-13 C18.5028726,2.71782596e-13 18.8797468,0.375534574 18.8797468,0.838779948 L18.8797468,4.19389979 L22.2468355,4.19389979 C22.7117334,4.1938998 23.0886076,4.56943437 23.0886076,5.03267974 C23.0886076,5.4959251 22.7117334,5.87145967 22.2468355,5.87145969 L18.8797468,5.87145969 L18.8797468,9.22657953 C18.8797468,9.6898249 18.5028726,10.0653595 18.0379747,10.0653595 Z" id="Path"></path>
            </g>
        </g>
    </g>
</svg>