<?xml version="1.0" encoding="UTF-8"?>
<svg width="22px" height="21px" viewBox="0 0 22 21" version="1.1" xmlns="http://www.w3.org/2000/svg" xmlns:xlink="http://www.w3.org/1999/xlink">
    <!-- Generator: Sketch 53 (72520) - https://sketchapp.com -->
    <title>Group 128</title>
    <desc>Created with Sketch.</desc>
    <g id="Page-1" stroke="none" stroke-width="1" fill="none" fill-rule="evenodd">
        <g id="Desktop-HD" transform="translate(-3948.000000, -2651.000000)" fill="#000000" fill-rule="nonzero">
            <g id="Group-128" transform="translate(3948.000000, 2647.000000)">
                <path d="M2.6586584,24.2111772 C0.94426685,24.2111772 0,23.3516142 0,21.7910091 L0,9.69016879 C0,8.12956376 0.94426685,7.27000072 2.6586584,7.27000072 L11.4765421,7.27000072 C11.7212648,7.27000072 11.9196518,7.45059175 11.9196518,7.67336208 C11.9196518,7.8961324 11.7212648,8.07672343 11.4765421,8.07672343 L2.6586584,8.07672343 C1.43257376,8.07672343 0.886219458,8.57406797 0.886219458,9.69016879 L0.886219458,21.7910091 C0.886219458,22.90711 1.43257376,23.4044545 2.6586584,23.4044545 L15.9519504,23.4044545 C17.178035,23.4044545 17.7243893,22.90711 17.7243893,21.7910091 L17.7243893,13.9859671 C17.7243893,13.7631968 17.9227763,13.5826058 18.1674991,13.5826058 C18.4122218,13.5826058 18.6106088,13.7631968 18.6106088,13.9859671 L18.6106088,21.7910091 C18.6106088,23.3516142 17.666342,24.2111772 15.9519504,24.2111772 L2.6586584,24.2111772 Z" id="Path"></path>
                <path d="M17.8601301,12.9517456 C17.4021146,12.9549383 17.033408,12.5862317 17.0366007,12.1282162 L17.0597247,8.81097449 L13.742483,8.83409851 C13.2844676,8.83729125 12.9157609,8.46858458 12.9189537,8.0105691 C12.9221464,7.55255362 13.2960296,7.17867046 13.754045,7.17547769 L17.0712867,7.15235367 L17.0944108,3.83511199 C17.0976035,3.3770965 17.4714867,3.00321334 17.9295022,3.00002058 C18.3875177,2.99682782 18.7562243,3.36553449 18.7530316,3.82354998 L18.7299076,7.14079166 L22.0471493,7.11766765 C22.5051648,7.1144749 22.8738714,7.48318157 22.8706787,7.94119705 C22.8674859,8.39921253 22.4936027,8.77309569 22.0355873,8.77628846 L18.7183456,8.79941248 L18.6952215,12.1166542 C18.6920288,12.5746697 18.3181456,12.9485528 17.8601301,12.9517456 Z" id="Path" transform="translate(17.894816, 7.975883) rotate(45.000000) translate(-17.894816, -7.975883) "></path>
            </g>
        </g>
    </g>
</svg>