<?xml version="1.0" encoding="UTF-8"?>
<svg width="19px" height="18px" viewBox="0 0 19 18" version="1.1" xmlns="http://www.w3.org/2000/svg" xmlns:xlink="http://www.w3.org/1999/xlink">
    <!-- Generator: Sketch 53 (72520) - https://sketchapp.com -->
    <title>Group 129</title>
    <desc>Created with Sketch.</desc>
    <g id="Page-1" stroke="none" stroke-width="1" fill="none" fill-rule="evenodd">
        <g id="Desktop-HD" transform="translate(-3981.000000, -2654.000000)" fill="#000000" fill-rule="nonzero">
            <g id="Group-129" transform="translate(3981.000000, 2654.641006)">
                <path d="M2.65201175,16.9411765 C0.941906183,16.9411765 1.71063164e-12,16.0816134 1.71063164e-12,14.5210084 L1.71063164e-12,2.42016807 C1.71063164e-12,0.859563033 0.941906183,-4.28101998e-13 2.65201175,-4.28101998e-13 L15.7318697,-4.28101998e-13 C15.9759807,-4.27514233e-13 16.1738717,0.180591029 16.1738717,0.403361352 C16.1738717,0.626131676 15.9759807,0.806722705 15.7318697,0.806722705 L2.65201175,0.806722705 C1.42899232,0.806722705 0.884003909,1.30406724 0.884003909,2.42016807 L0.884003909,14.5210084 C0.884003909,15.6371093 1.42899232,16.1344538 2.65201175,16.1344538 L15.9120705,16.1344538 C17.13509,16.1344538 17.6800784,15.6371093 17.6800783,14.5210084 L17.6800783,2.48067227 C17.6800783,2.25790195 17.8779694,2.07731092 18.1220803,2.07731092 C18.3661913,2.07731092 18.5640823,2.25790195 18.5640823,2.48067227 L18.5640823,14.5210084 C18.5640823,16.0816134 17.6221761,16.9411765 15.9120705,16.9411765 L2.65201175,16.9411765 Z" id="Path"></path>
                <path d="M13.1584258,3.08811808 C13.0694051,2.92959054 12.9273145,2.82352941 12.7498438,2.82352941 L3.29995827,2.82352941 C3.12191694,2.82352941 2.98039692,2.92959054 2.90906626,3.08811808 C2.83344274,3.24642899 2.86133962,3.43414815 2.97982627,3.56426486 L6.31981299,7.33676901 L6.31981299,11.2858537 C6.31980782,11.4155351 6.37840795,11.5384371 6.47959366,11.6209617 L7.31501832,12.3086666 C7.40377766,12.3820754 7.52021357,12.4141422 7.63457967,12.3966748 C7.74576719,12.3796966 7.84683918,12.3231141 7.91876101,12.2375831 C7.99066635,12.1481903 8.02279185,12.0337724 8.00778167,11.920528 C7.99121994,11.8053923 7.93474537,11.6995105 7.84800099,11.6209617 L7.15523765,11.0568067 L7.15523765,7.16075267 C7.15807659,7.0565934 7.11980605,6.9554296 7.04852698,6.87867519 L4.2409523,3.68668648 L11.7728991,3.68668648 L8.98415571,6.86005808 C8.91507654,6.94518218 8.87743369,7.05105504 8.87744505,7.16018851 L8.87744505,13.6648951 C8.87744505,13.9119949 9.07260572,14.1060643 9.30371705,14.1060643 C9.53482839,14.1060643 9.72998906,13.9119949 9.72998906,13.6654592 L9.72998906,7.31928021 L13.0694051,3.5462119 C13.1938058,3.42322612 13.2120664,3.22915682 13.1584258,3.08811808 Z M11.0801358,7.84789339 C11.0801358,8.0769403 11.2576064,8.27100961 11.4887178,8.28849841 L13.8511891,8.28849841 C14.0823005,8.28849841 14.2774611,8.09499326 14.2774611,7.84845755 C14.2824797,7.73008778 14.2374036,7.61499978 14.1530605,7.53083831 C14.0641893,7.45437248 13.9512634,7.41071266 13.8334991,7.40728838 L11.4881471,7.40728838 C11.2569548,7.42694273 11.0795793,7.61848777 11.0801358,7.84789339 L11.0801358,7.84789339 Z M13.8334991,12.0085361 L11.4881471,12.0085361 C11.2399164,12.0085361 11.0624457,12.2026055 11.0624457,12.4497053 C11.0624457,12.696241 11.2576064,12.8897462 11.4887178,12.8897462 L13.8511891,12.8897462 C14.0999905,12.8897462 14.2774611,12.696241 14.2774611,12.4497053 C14.2824797,12.3313355 14.2374036,12.2162476 14.1530605,12.1320861 C14.0686709,12.0485839 13.9527991,12.0037851 13.8334991,12.0085361 L13.8334991,12.0085361 Z M13.8334991,9.71693874 L11.4710278,9.71693874 C11.2222264,9.71693874 11.0447557,9.91100805 11.0447557,10.1575438 C11.0447557,10.4046436 11.2399164,10.5981488 11.4710278,10.5981488 L13.8334991,10.5981488 C14.0823005,10.5981488 14.2597711,10.4040795 14.2597711,10.1575438 C14.2647897,10.039174 14.2197136,9.92408599 14.1353705,9.83992452 C14.0648602,9.74737507 13.9488999,9.70022067 13.8329285,9.71693874 L13.8334991,9.71693874 Z" id="Shape"></path>
            </g>
        </g>
    </g>
</svg>