<?xml version="1.0" encoding="UTF-8"?>
<svg width="24px" height="18px" viewBox="0 0 24 18" version="1.1" xmlns="http://www.w3.org/2000/svg" xmlns:xlink="http://www.w3.org/1999/xlink">
    <!-- Generator: Sketch 53 (72520) - https://sketchapp.com -->
    <title>Group 127</title>
    <desc>Created with Sketch.</desc>
    <g id="Page-1" stroke="none" stroke-width="1" fill="none" fill-rule="evenodd">
        <g id="Desktop-HD" transform="translate(-3913.000000, -2654.000000)" fill="#e2a465" fill-rule="nonzero">
            <g id="Group-127" transform="translate(3913.000000, 2654.000000)">
                <path d="M2.67992767,17.0588235 C0.951820985,17.0588235 -6.91002811e-13,16.1992605 -6.91002811e-13,14.6386555 L-6.91002811e-13,2.53781512 C-6.91002811e-13,0.977210084 0.951820985,0.117647051 2.67992767,0.117647051 L11.5683544,0.117647051 C11.8150349,0.117647051 12.015009,0.29823808 12.015009,0.521008403 C12.015009,0.743778727 11.8150349,0.924369756 11.5683544,0.924369756 L2.67992767,0.924369756 C1.44403435,0.924369756 0.893309214,1.42171429 0.893309214,2.53781512 L0.893309214,14.6386555 C0.893309214,15.7547563 1.44403435,16.2521008 2.67992767,16.2521008 L16.079566,16.2521008 C17.3154593,16.2521008 17.8661845,15.7547563 17.8661844,14.6386555 L17.8661844,4.01008403 C17.8661844,3.7873137 18.0661585,3.60672267 18.3128391,3.60672267 C18.5595196,3.60672267 18.7594937,3.7873137 18.7594937,4.01008403 L18.7594937,14.6386555 C18.7594937,16.1992605 17.8076727,17.0588235 16.079566,17.0588235 L2.67992767,17.0588235 Z" id="Path"></path>
                <path d="M17.1962025,1.64705881 L13.8291139,1.64705881 C13.364216,1.64705879 12.9873418,1.27835212 12.9873418,0.823529404 C12.9873418,0.368706683 13.364216,1.35545525e-08 13.8291139,-2.21489493e-13 L17.1962025,-2.21489493e-13 L18.8797468,-2.21489493e-13 L22.2468355,-2.21489493e-13 C22.7117334,1.35545518e-08 23.0886076,0.368706683 23.0886076,0.823529404 C23.0886076,1.27835212 22.7117334,1.64705879 22.2468355,1.64705881 L18.8797468,1.64705881 L17.1962025,1.64705881 Z" id="Path"></path>
            </g>
        </g>
    </g>
</svg>