<?xml version="1.0" encoding="UTF-8"?>
<svg width="43px" height="43px" viewBox="0 0 43 43" version="1.1" xmlns="http://www.w3.org/2000/svg" xmlns:xlink="http://www.w3.org/1999/xlink">
    <!-- Generator: Sketch 53 (72520) - https://sketchapp.com -->
    <title>Group 59</title>
    <desc>Created with Sketch.</desc>
    <defs>
        <circle id="path-1" cx="12.5" cy="12.5" r="12.5"></circle>
        <filter x="-54.0%" y="-54.0%" width="208.0%" height="208.0%" filterUnits="objectBoundingBox" id="filter-2">
            <feOffset dx="0" dy="0" in="SourceAlpha" result="shadowOffsetOuter1"></feOffset>
            <feGaussianBlur stdDeviation="4.5" in="shadowOffsetOuter1" result="shadowBlurOuter1"></feGaussianBlur>
            <feColorMatrix values="0 0 0 0 0   0 0 0 0 0   0 0 0 0 0  0 0 0 0.0771059783 0" type="matrix" in="shadowBlurOuter1"></feColorMatrix>
        </filter>
    </defs>
    <g id="Page-1" stroke="none" stroke-width="1" fill="none" fill-rule="evenodd">
        <g id="case-1" transform="translate(-6906.000000, -1790.000000)">
            <g id="Group-50" transform="translate(5440.000000, 1787.000000)">
                <g id="Group-59" transform="translate(1475.000000, 12.000000)">
                    <g id="Oval-6">
                        <use fill="black" fill-opacity="1" filter="url(#filter-2)" xlink:href="#path-1"></use>
                        <use fill="#F4E2B4" fill-rule="evenodd" xlink:href="#path-1"></use>
                    </g>
                    <path d="M11.0528236,8.65085638 L18.4286769,8.65085638 C18.7442079,8.65085638 19,8.40448326 19,8.10057092 C19,7.79665858 18.7442079,7.55028546 18.4286769,7.55028546 L11.0528236,7.55028546 C10.7372925,7.55028546 10.4815004,7.79665858 10.4815004,8.10057092 C10.4815004,8.40448326 10.7372925,8.65085638 11.0528236,8.65085638 Z M11.0526629,13.0396753 L18.4014497,13.0396753 C18.7169808,13.0396753 18.9727729,12.7933022 18.9727729,12.4893898 C18.9727729,12.1854775 18.7169808,11.9391043 18.4014497,11.9391043 L11.0526629,11.9391043 C10.7371318,11.9391043 10.4813398,12.1854775 10.4813398,12.4893898 C10.4813398,12.7933022 10.7371318,13.0396753 11.0526629,13.0396753 Z M18.4286769,16.3522562 L11.0528236,16.3522562 C10.7372925,16.3522562 10.4815004,16.5986293 10.4815004,16.9025416 C10.4815004,17.206454 10.7372925,17.4528271 11.0528236,17.4528271 L18.4286769,17.4528271 C18.7442079,17.4528271 19,17.206454 19,16.9025416 C19,16.5986293 18.7442079,16.3522562 18.4286769,16.3522562 L18.4286769,16.3522562 Z M7,8.10057092 C7,8.70839946 7.51158017,9.20114184 8.1426463,9.20114184 C8.77371242,9.20114184 9.28529259,8.70839946 9.28529259,8.10057092 C9.28529259,7.49274239 8.77371242,7 8.1426463,7 C7.51158017,7 7,7.49274239 7,8.10057092 Z M7,12.4828036 C7,13.0906321 7.51158017,13.5833745 8.1426463,13.5833745 C8.77371242,13.5833745 9.28529259,13.0906321 9.28529259,12.4828036 C9.28529259,11.874975 8.77371242,11.3822327 8.1426463,11.3822327 C7.51158017,11.3822327 7,11.874975 7,12.4828036 Z M7,16.8994291 C7,17.5072576 7.51158017,18 8.1426463,18 C8.77371242,18 9.28529259,17.5072576 9.28529259,16.8994291 C9.28529259,16.2916005 8.77371242,15.7988582 8.1426463,15.7988582 C7.51158017,15.7988582 7,16.2916005 7,16.8994291 Z" id="Shape" fill="#B97841" fill-rule="nonzero"></path>
                </g>
            </g>
        </g>
    </g>
</svg>