<?xml version="1.0" encoding="UTF-8"?>
<svg width="43px" height="43px" viewBox="0 0 43 43" version="1.1" xmlns="http://www.w3.org/2000/svg" xmlns:xlink="http://www.w3.org/1999/xlink">
    <!-- Generator: Sketch 53 (72520) - https://sketchapp.com -->
    <title>Group 54</title>
    <desc>Created with Sketch.</desc>
    <defs>
        <circle id="path-1" cx="12.5" cy="12.5" r="12.5"></circle>
        <filter x="-54.0%" y="-54.0%" width="208.0%" height="208.0%" filterUnits="objectBoundingBox" id="filter-2">
            <feOffset dx="0" dy="0" in="SourceAlpha" result="shadowOffsetOuter1"></feOffset>
            <feGaussianBlur stdDeviation="4.5" in="shadowOffsetOuter1" result="shadowBlurOuter1"></feGaussianBlur>
            <feColorMatrix values="0 0 0 0 0   0 0 0 0 0   0 0 0 0 0  0 0 0 0.0771059783 0" type="matrix" in="shadowBlurOuter1"></feColorMatrix>
        </filter>
    </defs>
    <g id="Page-1" stroke="none" stroke-width="1" fill="none" fill-rule="evenodd">
        <g id="case-1" transform="translate(-6867.000000, -1790.000000)">
            <g id="Group-50" transform="translate(5440.000000, 1787.000000)">
                <g id="Group-48" transform="translate(1436.000000, 12.000000)">
                    <g id="Group-54">
                        <g id="Oval-6">
                            <use fill="black" fill-opacity="1" filter="url(#filter-2)" xlink:href="#path-1"></use>
                            <use fill="#F4E2B4" fill-rule="evenodd" xlink:href="#path-1"></use>
                        </g>
                        <g id="MAPPIN" transform="translate(6.000000, 4.000000)" fill="#B97841" fill-rule="nonzero">
                            <path d="M5.87299317,16.9880323 C5.9704964,17.1363694 6.13344671,17.2252844 6.30779356,17.2252844 C6.48214041,17.2252844 6.64509072,17.1363694 6.74259395,16.9880323 L11.6916609,9.44228149 C12.2820984,8.4787126 12.5956895,7.36373505 12.5964023,6.22545976 C12.5964023,2.79332198 9.77308449,0.000672862644 6.30254868,0.000672862644 C2.83201288,0.000672862644 0.00869502439,2.79332198 0.00869502439,6.22545976 C0.00869502439,7.36340506 0.32286322,8.4776656 0.926024195,9.46165993 L5.87299317,16.9880323 L5.87299317,16.9880323 Z M6.30307317,1.0767148 C9.19509893,1.0767148 11.5479512,3.38651769 11.5479512,6.22492147 C11.5479486,7.15503298 11.2931427,8.06640564 10.8126193,8.85500697 L6.30726907,15.7235888 L1.80506576,8.87330884 C1.3177068,8.08047971 1.05878386,7.16234447 1.05819512,6.22492147 C1.05819512,3.38651769 3.41104741,1.0767148 6.30307317,1.0767148 L6.30307317,1.0767148 Z" id="Shape"></path>
                            <path d="M6.30307317,9.16290892 C7.94734244,9.16290892 9.28531083,7.8349472 9.28531083,6.20231328 C9.28531083,4.56967936 7.94786693,3.24171765 6.30307317,3.24171765 C4.65827941,3.24171765 3.32083551,4.56967936 3.32083551,6.20231328 C3.32083551,7.8349472 4.6588039,9.16290892 6.30307317,9.16290892 Z M6.30307317,4.31829788 C7.36883239,4.31829788 8.23633522,5.16341336 8.23633522,6.20231328 C8.23633522,7.24121321 7.36935688,8.08632869 6.30307317,8.08632869 C5.23678946,8.08632869 4.36981112,7.24121321 4.36981112,6.20231328 C4.36981112,5.16341336 5.23731395,4.31829788 6.30307317,4.31829788 Z" id="Shape"></path>
                        </g>
                    </g>
                </g>
            </g>
        </g>
    </g>
</svg>