<?xml version="1.0" encoding="UTF-8"?>
<svg width="43px" height="43px" viewBox="0 0 43 43" version="1.1" xmlns="http://www.w3.org/2000/svg" xmlns:xlink="http://www.w3.org/1999/xlink">
    <!-- Generator: Sketch 53 (72520) - https://sketchapp.com -->
    <title>Group 53</title>
    <desc>Created with Sketch.</desc>
    <defs>
        <circle id="path-1" cx="12.5" cy="12.5" r="12.5"></circle>
        <filter x="-54.0%" y="-54.0%" width="208.0%" height="208.0%" filterUnits="objectBoundingBox" id="filter-2">
            <feOffset dx="0" dy="0" in="SourceAlpha" result="shadowOffsetOuter1"></feOffset>
            <feGaussianBlur stdDeviation="4.5" in="shadowOffsetOuter1" result="shadowBlurOuter1"></feGaussianBlur>
            <feColorMatrix values="0 0 0 0 0   0 0 0 0 0   0 0 0 0 0  0 0 0 0.0771059783 0" type="matrix" in="shadowBlurOuter1"></feColorMatrix>
        </filter>
    </defs>
    <g id="Page-1" stroke="none" stroke-width="1" fill="none" fill-rule="evenodd">
        <g id="case-1" transform="translate(-6829.000000, -1790.000000)">
            <g id="Group-50" transform="translate(5440.000000, 1787.000000)">
                <g id="Group-53" transform="translate(1398.000000, 12.000000)">
                    <g id="Oval-6">
                        <use fill="black" fill-opacity="1" filter="url(#filter-2)" xlink:href="#path-1"></use>
                        <use fill="#F4E2B4" fill-rule="evenodd" xlink:href="#path-1"></use>
                    </g>
                    <g id="shujujuzhen" transform="translate(5.000000, 6.000000)" fill="#B97841" fill-rule="nonzero">
                        <path d="M2.11764706,2.15384615 L4.18235294,2.15384615 L4.18235294,4.25384615 L2.11764706,4.25384615 L2.11764706,2.15384615 Z M2.11764706,9.69230769 L4.18235294,9.69230769 L4.18235294,11.7923077 L2.11764706,11.7923077 L2.11764706,9.69230769 Z M2.11764706,5.92307692 L4.18235294,5.92307692 L4.18235294,8.02307692 L2.11764706,8.02307692 L2.11764706,5.92307692 Z M1.05882353,1.07692308 L1.57918552,1.07692308 C1.87656962,1.07692308 2.11764706,0.835845635 2.11764706,0.538461538 L2.11764706,0.538461538 C2.11764706,0.241077442 1.87656962,1.67416033e-16 1.57918552,2.22044605e-16 L0,0 L0,14 L1.57918552,14 C1.87656962,14 2.11764706,13.7589226 2.11764706,13.4615385 L2.11764706,13.4615385 C2.11764706,13.1641544 1.87656962,12.9230769 1.57918552,12.9230769 L1.05882353,12.9230769 L1.05882353,1.07692308 Z M10.5882353,2.15384615 L12.6529412,2.15384615 L12.6529412,4.25384615 L10.5882353,4.25384615 L10.5882353,2.15384615 Z M10.5882353,5.92307692 L12.6529412,5.92307692 L12.6529412,8.02307692 L10.5882353,8.02307692 L10.5882353,5.92307692 Z M13.2443439,1.07692308 L13.7647059,1.07692308 L13.7647059,12.9230769 L13.2443439,12.9230769 C12.9469598,12.9230769 12.7058824,13.1641544 12.7058824,13.4615385 L12.7058824,13.4615385 C12.7058824,13.7589226 12.9469598,14 13.2443439,14 L14.8235294,14 L14.8235294,0 L13.2443439,1.11022302e-16 C12.9469598,1.65650875e-16 12.7058824,0.241077442 12.7058824,0.538461538 L12.7058824,0.538461538 C12.7058824,0.835845635 12.9469598,1.07692308 13.2443439,1.07692308 Z M6.35294118,2.15384615 L8.41764706,2.15384615 L8.41764706,4.25384615 L6.35294118,4.25384615 L6.35294118,2.15384615 Z M10.5882353,9.69230769 L12.6529412,9.69230769 L12.6529412,11.7923077 L10.5882353,11.7923077 L10.5882353,9.69230769 Z M6.35294118,5.92307692 L8.41764706,5.92307692 L8.41764706,8.02307692 L6.35294118,8.02307692 L6.35294118,5.92307692 Z M6.35294118,9.69230769 L8.41764706,9.69230769 L8.41764706,11.7923077 L6.35294118,11.7923077 L6.35294118,9.69230769 Z" id="Shape"></path>
                    </g>
                </g>
            </g>
        </g>
    </g>
</svg>