<?xml version="1.0" encoding="UTF-8"?>
<svg width="43px" height="43px" viewBox="0 0 43 43" version="1.1" xmlns="http://www.w3.org/2000/svg" xmlns:xlink="http://www.w3.org/1999/xlink">
    <!-- Generator: Sketch 53 (72520) - https://sketchapp.com -->
    <title>Group 62</title>
    <desc>Created with Sketch.</desc>
    <defs>
        <circle id="path-1" cx="12.5" cy="12.5" r="12.5"></circle>
        <filter x="-54.0%" y="-54.0%" width="208.0%" height="208.0%" filterUnits="objectBoundingBox" id="filter-2">
            <feOffset dx="0" dy="0" in="SourceAlpha" result="shadowOffsetOuter1"></feOffset>
            <feGaussianBlur stdDeviation="4.5" in="shadowOffsetOuter1" result="shadowBlurOuter1"></feGaussianBlur>
            <feColorMatrix values="0 0 0 0 0   0 0 0 0 0   0 0 0 0 0  0 0 0 0.0771059783 0" type="matrix" in="shadowBlurOuter1"></feColorMatrix>
        </filter>
    </defs>
    <g id="Page-1" stroke="none" stroke-width="1" fill="none" fill-rule="evenodd">
        <g id="case-1" transform="translate(-7311.000000, -1791.000000)">
            <g id="Group-50" transform="translate(5440.000000, 1787.000000)">
                <g id="Group-30" transform="translate(1880.000000, 13.000000)">
                    <g id="Group-62" transform="translate(-0.000000, 0.000000)">
                        <g id="Oval-6">
                            <use fill="black" fill-opacity="1" filter="url(#filter-2)" xlink:href="#path-1"></use>
                            <use fill="#F4E2B4" fill-rule="evenodd" xlink:href="#path-1"></use>
                        </g>
                        <path d="M7.63675104,8.71161132 L15.0906971,8.71161132 C15.4095689,8.71161132 15.6680692,8.45617116 15.6680692,8.14107421 C15.6680692,7.82597727 15.4095689,7.57053711 15.0906971,7.57053711 L7.63675104,7.57053711 C7.31787925,7.57053711 7.05937894,7.82597727 7.05937894,8.14107421 C7.05937894,8.45617116 7.31787925,8.71161132 7.63675104,8.71161132 Z M7.63658866,13.2619478 L15.0631817,13.2619478 C15.3820535,13.2619478 15.6405538,13.0065077 15.6405538,12.6914107 C15.6405538,12.3763138 15.3820535,12.1208736 15.0631817,12.1208736 L7.63658866,12.1208736 C7.31771687,12.1208736 7.05921655,12.3763138 7.05921655,12.6914107 C7.05921655,13.0065077 7.31771687,13.2619478 7.63658866,13.2619478 Z M15.0906971,16.6964386 L7.63675104,16.6964386 C7.31787925,16.6964386 7.05937894,16.9518788 7.05937894,17.2669757 C7.05937894,17.5820727 7.31787925,17.8375128 7.63675104,17.8375128 L15.0906971,17.8375128 C15.4095689,17.8375128 15.6680692,17.5820727 15.6680692,17.2669757 C15.6680692,16.9518788 15.4095689,16.6964386 15.0906971,16.6964386 L15.0906971,16.6964386 Z M3.54101765,8.14107421 C3.54101765,8.7712721 4.05801425,9.28214843 4.69576187,9.28214843 C5.33350949,9.28214843 5.85050608,8.7712721 5.85050608,8.14107421 C5.85050608,7.51087633 5.33350949,7 4.69576187,7 C4.05801425,7 3.54101765,7.51087633 3.54101765,8.14107421 Z M3.54101765,12.6845821 C3.54101765,13.31478 4.05801425,13.8256563 4.69576187,13.8256563 C5.33350949,13.8256563 5.85050608,13.31478 5.85050608,12.6845821 C5.85050608,12.0543842 5.33350949,11.5435079 4.69576187,11.5435079 C4.05801425,11.5435079 3.54101765,12.0543842 3.54101765,12.6845821 Z M3.54101765,17.2637486 C3.54101765,17.8939465 4.05801425,18.4048228 4.69576187,18.4048228 C5.33350949,18.4048228 5.85050608,17.8939465 5.85050608,17.2637486 C5.85050608,16.6335507 5.33350949,16.1226744 4.69576187,16.1226744 C4.05801425,16.1226744 3.54101765,16.6335507 3.54101765,17.2637486 Z" id="Shape" fill="#B97841" fill-rule="nonzero"></path>
                        <polyline id="Path-55" stroke="#B97841" stroke-width="0.8" stroke-linecap="round" stroke-linejoin="round" points="17.5410177 8 22.5410177 12.7278333 17.5410177 17"></polyline>
                    </g>
                </g>
            </g>
        </g>
    </g>
</svg>