<?xml version="1.0" encoding="UTF-8"?>
<svg width="26px" height="26px" viewBox="0 0 26 26" version="1.1" xmlns="http://www.w3.org/2000/svg" xmlns:xlink="http://www.w3.org/1999/xlink">
    <!-- Generator: Sketch 53 (72520) - https://sketchapp.com -->
    <title>Group 207</title>
    <desc>Created with Sketch.</desc>
    <g id="Page-1" stroke="none" stroke-width="1" fill="none" fill-rule="evenodd">
        <g id="Desktop-HD" transform="translate(-1558.000000, -10256.000000)">
            <g id="Group-191" transform="translate(563.000000, 9488.000000)">
                <g id="Group-207" transform="translate(996.000000, 769.000000)">
                    <g id="Group-159" stroke="#b4412c">
                        <g id="flower_SFontCN" transform="translate(0.000000, 0.000000)" fill-rule="nonzero">
                            <path d="M8.20370212,23.9956755 C9.16627084,23.9756116 10.0088246,23.6470659 10.7289142,23.0075303 C11.4636995,22.3554547 11.9462085,21.5804881 12.1813398,20.6826302 C12.2254269,20.8205693 12.2719633,20.9560004 12.3258475,21.0914314 C12.7985594,22.2325636 13.535794,23.04515 14.5400005,23.5266827 C15.6519756,24.0383112 16.810487,24.0332952 18.0179841,23.5091268 C18.507841,23.2959483 18.9879007,23.0050223 19.455714,22.6388568 C20.4770655,21.8187464 21.1285752,20.8857768 21.4102428,19.844964 C21.6894612,18.9019625 21.6429248,17.9790248 21.2706336,17.078659 C20.8836467,16.1406734 20.2982678,15.4183744 19.5144968,14.9117618 C19.6688017,14.9117618 19.8206574,14.9092539 19.9749623,14.8967139 C21.1800101,14.7888707 22.1646224,14.3223859 22.9214512,13.4922436 C23.7395122,12.5693059 24.0922091,11.4382057 23.979542,10.1014509 C23.9330056,9.55972659 23.8129907,9.00295441 23.617048,8.43364232 C23.1712782,7.18466689 22.5075222,6.26172923 21.6257799,5.66482933 C20.834661,5.1005332 19.9651651,4.86227484 19.0148428,4.94503827 C18.0326799,5.03281767 17.1852275,5.37641131 16.4749351,5.97581919 C16.5190222,5.83537216 16.56066,5.69241714 16.59495,5.54695414 C16.8692698,4.34061442 16.7370085,3.237102 16.2006152,2.24394081 C15.595642,1.16049225 14.6551169,0.468289004 13.3765905,0.164823088 C12.8597915,0.0419319313 12.303804,-0.0107357071 11.7135265,0.00180420681 C10.4178551,0.0494558797 9.35486573,0.413113383 8.52945693,1.08776075 C7.76283096,1.68215267 7.27052482,2.45711935 7.05253852,3.40764482 C6.83210294,4.37823416 6.88843648,5.29113989 7.20929272,6.15639395 C7.11132135,6.08617044 7.01579926,6.01343894 6.91292932,5.95073937 C5.87688208,5.31120376 4.81144343,5.09802522 3.72396122,5.31371174 C2.53115978,5.567018 1.59798248,6.27176116 0.921980025,7.42041728 C0.650109473,7.88690207 0.427224605,8.41107048 0.260673276,8.9904145 C-0.0944729418,10.2694857 -0.0871250891,11.4156338 0.285166118,12.4263509 C0.601123787,13.3568125 1.16690845,14.0766036 1.98496939,14.5807081 C2.81037819,15.0898286 3.67252625,15.3180551 4.566515,15.2754193 C4.45629721,15.3581828 4.34607942,15.4409462 4.24076019,15.5337416 C3.32717717,16.346328 2.80058105,17.3169173 2.66342113,18.4430016 C2.53115978,19.6819451 2.89610314,20.8105373 3.75335263,21.8237624 C4.10115099,22.2350716 4.5199786,22.613777 5.00493688,22.9548626 C6.08262196,23.6972255 7.15050989,24.0433272 8.20370212,23.9956755 Z" id="Path"></path>
                        </g>
                        <circle id="Oval" stroke-width="0.5" cx="12" cy="12.62" r="6"></circle>
                    </g>
                    <g id="Group-157" transform="translate(8.500000, 9.000000)" fill="#b4412c" fill-rule="nonzero">
                        <path d="M6.42068966,0 L3.28275862,0 C2.96413793,0 2.70344828,0.260689658 2.70344828,0.579310342 L2.70344828,0.91724138 L3.1862069,0.91724138 L3.1862069,0.579310342 C3.1862069,0.526206893 3.22965518,0.48275862 3.28275862,0.48275862 L6.42068966,0.48275862 C6.47379311,0.48275862 6.51724138,0.526206898 6.51724138,0.579310342 L6.51724138,3.71724138 C6.51724138,3.77034483 6.4737931,3.8137931 6.42068966,3.8137931 L6.08275862,3.8137931 L6.08275862,4.29655172 L6.42068966,4.29655172 C6.73931035,4.29655172 7,4.03586206 7,3.71724138 L7,0.579310342 C7,0.260689652 6.73931034,0 6.42068966,0 Z" id="Path"></path>
                        <path d="M4.84494382,1.4 L0.755056177,1.4 C0.339775285,1.4 0,1.73977528 0,2.15505618 L0,6.24494382 C0,6.66022472 0.339775285,7 0.755056177,7 L4.84494382,7 C5.26022472,7 5.6,6.66022472 5.6,6.24494382 L5.6,2.15505618 C5.6,1.73977528 5.26022472,1.4 4.84494382,1.4 Z M4.97078652,6.24494382 C4.97078652,6.31415731 4.9141573,6.37078652 4.84494382,6.37078652 L0.755056177,6.37078652 C0.685842692,6.37078652 0.629213483,6.3141573 0.629213483,6.24494382 L0.629213483,2.15505618 C0.629213483,2.08584269 0.685842699,2.02921348 0.755056177,2.02921348 L4.84494382,2.02921348 C4.91415731,2.02921348 4.97078652,2.0858427 4.97078652,2.15505618 L4.97078652,6.24494382 L4.97078652,6.24494382 Z" id="Shape"></path>
                    </g>
                </g>
            </g>
        </g>
    </g>
</svg>