<?xml version="1.0" encoding="UTF-8"?>
<svg width="43px" height="43px" viewBox="0 0 43 43" version="1.1" xmlns="http://www.w3.org/2000/svg" xmlns:xlink="http://www.w3.org/1999/xlink">
    <!-- Generator: Sketch 53 (72520) - https://sketchapp.com -->
    <title>Group 52</title>
    <desc>Created with Sketch.</desc>
    <defs>
        <circle id="path-1" cx="12.5" cy="12.5" r="12.5"></circle>
        <filter x="-54.0%" y="-54.0%" width="208.0%" height="208.0%" filterUnits="objectBoundingBox" id="filter-2">
            <feOffset dx="0" dy="0" in="SourceAlpha" result="shadowOffsetOuter1"></feOffset>
            <feGaussianBlur stdDeviation="4.5" in="shadowOffsetOuter1" result="shadowBlurOuter1"></feGaussianBlur>
            <feColorMatrix values="0 0 0 0 0   0 0 0 0 0   0 0 0 0 0  0 0 0 0.0771059783 0" type="matrix" in="shadowBlurOuter1"></feColorMatrix>
        </filter>
    </defs>
    <g id="Page-1" stroke="none" stroke-width="1" fill="none" fill-rule="evenodd">
        <g id="case-1" transform="translate(-6792.000000, -1790.000000)">
            <g id="Group-50" transform="translate(5440.000000, 1787.000000)">
                <g id="Group-52" transform="translate(1361.000000, 12.000000)">
                    <g id="Oval-6">
                        <use fill="black" fill-opacity="1" filter="url(#filter-2)" xlink:href="#path-1"></use>
                        <use fill="#F4E2B4" fill-rule="evenodd" xlink:href="#path-1"></use>
                    </g>
                    <path d="M7.71702852,14.4141042 L7.71702852,11.6498949 C8.5321564,11.3284369 9.07544618,10.6213391 9.07544618,9.78569469 C9.07544618,8.95005028 8.53196319,8.24276963 7.71702852,7.98567641 L7.71702852,4.64291592 C7.71702852,4.25727608 7.44538363,4 7.03772309,4 C6.63006255,4 6.35841766,4.25709323 6.35841766,4.64291592 L6.35841766,7.98567641 C5.54328978,8.24276963 5,8.94986743 5,9.78569469 C5,10.621522 5.54348299,11.3286198 6.35841766,11.585713 L6.35841766,14.3499223 C5.54328978,14.6070155 5,15.3141133 5,16.1499406 C5,16.9857678 5.54348299,17.6928656 6.35841766,17.9499589 L6.35841766,21.3570841 C6.35841766,21.7427239 6.63006255,22 7.03772309,22 C7.44538363,22 7.71702852,21.7429068 7.71702852,21.3570841 L7.71702852,18.0141407 C8.5321564,17.7570475 9.07544618,17.0499497 9.07544618,16.2141225 C9.07544618,15.3782952 8.5321564,14.6713802 7.71702852,14.4141042 L7.71702852,14.4141042 Z M7.03772309,9.14277878 C7.44519043,9.14277878 7.71702852,9.399872 7.71702852,9.78569469 C7.71702852,10.1715174 7.44538363,10.4286106 7.03772309,10.4286106 C6.63006255,10.4286106 6.35841766,10.1715174 6.35841766,9.78569469 C6.35841766,9.399872 6.63025575,9.14277878 7.03772309,9.14277878 Z M7.03772309,16.8570384 C6.63025575,16.8570384 6.35841766,16.5999451 6.35841766,16.2141225 C6.35841766,15.8282998 6.63006255,15.5712065 7.03772309,15.5712065 C7.44538363,15.5712065 7.71702852,15.8282998 7.71702852,16.2141225 C7.71702852,16.5999451 7.44538363,16.8570384 7.03772309,16.8570384 Z M18.5434105,17.0398927 L11.9934069,17.0398927 C11.5840075,17.0398927 11.1746082,17.296986 11.1746082,17.6828086 C11.1746082,18.0686313 11.502089,18.3257246 11.9934069,18.3257246 L18.5436037,18.3257246 C18.9530031,18.3257246 19.3624025,18.0686313 19.3624025,17.6828086 C19.3624025,17.296986 19.0349216,17.0398927 18.5434105,17.0398927 Z M20.1813945,8.03998415 L11.9934069,8.03998415 C11.5840075,8.03998415 11.1746082,8.29707738 11.1746082,8.68290007 C11.1746082,9.06872276 11.502089,9.32581599 11.9934069,9.32581599 L20.1813945,9.32581599 C20.5906006,9.32581599 21,9.06872276 21,8.68290007 C21,8.29707738 20.6725191,8.03998415 20.1813945,8.03998415 Z M18.5434105,11.8971139 C18.9528099,11.8971139 19.3622093,11.6400207 19.3622093,11.254198 C19.3622093,10.8683753 19.0349216,10.6112821 18.5434105,10.6112821 L11.9934069,10.6112821 C11.5840075,10.6112821 11.1746082,10.8683753 11.1746082,11.254198 C11.1746082,11.6400207 11.502089,11.8971139 11.9934069,11.8971139 L18.5434105,11.8971139 L18.5434105,11.8971139 Z M20.1813945,14.4684119 L11.9934069,14.4684119 C11.5840075,14.4684119 11.1746082,14.7255051 11.1746082,15.1113278 C11.1746082,15.4971505 11.502089,15.7542437 11.9934069,15.7542437 L20.1813945,15.7542437 C20.5906006,15.7542437 21,15.4971505 21,15.1113278 C21,14.7255051 20.6725191,14.4684119 20.1813945,14.4684119 Z" id="Shape" fill="#B97841" fill-rule="nonzero"></path>
                </g>
            </g>
        </g>
    </g>
</svg>