<?xml version="1.0" encoding="UTF-8"?>
<svg width="18px" height="17px" viewBox="0 0 18 17" version="1.1" xmlns="http://www.w3.org/2000/svg" xmlns:xlink="http://www.w3.org/1999/xlink">
    <!-- Generator: Sketch 53 (72520) - https://sketchapp.com -->
    <title>icon:calendar</title>
    <desc>Created with Sketch.</desc>
    <g id="Page-1" stroke="none" stroke-width="1" fill="none" fill-rule="evenodd">
        <g id="Desktop-HD" transform="translate(-1221.000000, -2213.000000)" fill="#000000" fill-rule="nonzero">
            <g id="Group-34" transform="translate(1198.500000, 2112.000000)">
                <g id="input:date_time_from" transform="translate(8.000000, 91.000000)">
                    <g id="icon:calendar" transform="translate(15.000000, 10.000000)">
                        <path d="M0.600344531,16.1052632 L16.3996555,16.1052632 C16.7364341,16.1052632 17,15.835091 17,15.489871 L17,1.7561191 C17,1.4108991 16.7364341,1.14072693 16.3996555,1.14072693 L13.4272179,1.14072693 L13.4272179,0.615392162 C13.4272179,0.270172169 13.163652,0 12.8268734,0 C12.4900947,0 12.2265289,0.270172169 12.2265289,0.615392162 L12.2265289,1.14072693 L4.87596899,1.14072693 L4.87596899,0.615392162 C4.87596899,0.270172169 4.6124031,0 4.27562446,0 C3.93884582,0 3.67527993,0.270172169 3.67527993,0.615392162 L3.67527993,1.14072693 L0.600344531,1.14072693 C0.263565891,1.14072693 0,1.4108991 0,1.7561191 L0,15.5048806 C0,15.835091 0.278208441,16.1052632 0.600344531,16.1052632 Z M1.20068906,2.37151126 L3.67527993,2.37151126 L3.67527993,2.70172169 C3.67527993,3.04694168 3.93884582,3.31711385 4.27562446,3.31711385 C4.6124031,3.31711385 4.87596899,3.04694168 4.87596899,2.70172169 L4.87596899,2.37151126 L12.2265289,2.37151126 L12.2265289,2.70172169 C12.2265289,3.04694168 12.4900947,3.31711385 12.8268734,3.31711385 C13.163652,3.31711385 13.4272179,3.04694168 13.4272179,2.70172169 L13.4272179,2.37151126 L15.8139535,2.37151126 L15.8139535,3.96252514 L1.20068906,3.96252514 L1.20068906,2.37151126 L1.20068906,2.37151126 Z M1.20068906,5.19330946 L15.7993109,5.19330946 L15.7993109,14.8894884 L1.20068906,14.8894884 L1.20068906,5.19330946 Z" id="Shape"></path>
                        <path d="M12.820567,8.05263158 L4.17943296,8.05263158 C3.84257519,8.05263158 3.57894737,8.24903723 3.57894737,8.5 C3.57894737,8.75096277 3.84257519,8.94736842 4.17943296,8.94736842 L12.820567,8.94736842 C13.1574248,8.94736842 13.4210526,8.75096277 13.4210526,8.5 C13.4210526,8.24903723 13.1574248,8.05263158 12.820567,8.05263158 Z" id="Shape"></path>
                        <path d="M8.36353483,10.7368421 L4.16278096,10.7368421 C3.83526455,10.7368421 3.57894737,10.9332478 3.57894737,11.1842105 C3.57894737,11.4351733 3.83526455,11.6315789 4.16278096,11.6315789 L8.36353483,11.6315789 C8.69105124,11.6315789 8.94736842,11.4351733 8.94736842,11.1842105 C8.94736842,10.9332478 8.69105124,10.7368421 8.36353483,10.7368421 Z" id="Shape"></path>
                    </g>
                </g>
            </g>
        </g>
    </g>
</svg>