<svg xmlns="http://www.w3.org/2000/svg" width="22px" height="19px" viewBox="0 0 22 19">
  <defs>
    <style>
      .cls-1 {
        fill: #040000;
      }
    </style>
  </defs>
  <title>deleteIcon</title>
  <g id="图层_2" data-name="图层 2">
    <g id="图层_1-2" data-name="图层 1">
      <path class="cls-1" d="M11.08,14.89a.38.38,0,0,0,.76,0V7.25a.38.38,0,1,0-.76,0Z"/>
      <path class="cls-1" d="M19.09,2.44H13.81V1.22A1.23,1.23,0,0,0,12.59,0H6.91A1.23,1.23,0,0,0,5.69,1.22V2.44H.41a.41.41,0,0,0,0,.81h2V17.06a1.8,1.8,0,0,0,2,2H15a1.8,1.8,0,0,0,2-2V3.25h2a.41.41,0,0,0,0-.81ZM6.5,1.63A.81.81,0,0,1,7.31.81h4.88a.81.81,0,0,1,.81.81v.81H6.5Zm9.75,15.44c0,.9-.32,1.22-1.22,1.22H4.47c-.9,0-1.22-.32-1.22-1.22V3.25h13Z"/>
      <path class="cls-1" d="M6.5,14.89a.38.38,0,0,0,.76,0V7.25a.38.38,0,0,0-.76,0Z"/>
    </g>
  </g>
</svg>
