<?xml version="1.0" encoding="UTF-8"?>
<svg width="105px" height="28px" viewBox="0 0 105 28" version="1.1" xmlns="http://www.w3.org/2000/svg" xmlns:xlink="http://www.w3.org/1999/xlink">
    <!-- Generator: Sketch 53 (72520) - https://sketchapp.com -->
    <title>Group 43</title>
    <desc>Created with Sketch.</desc>
    <defs>
        <linearGradient x1="50%" y1="0%" x2="50%" y2="100%" id="linearGradient-1">
            <stop stop-color="#FE5266" offset="0%"></stop>
            <stop stop-color="#FE5465" offset="51.6627956%"></stop>
            <stop stop-color="#FD7F54" offset="100%"></stop>
        </linearGradient>
        <linearGradient x1="50%" y1="0%" x2="50%" y2="99.7703758%" id="linearGradient-2">
            <stop stop-color="#FE5266" offset="0%"></stop>
            <stop stop-color="#FE5465" offset="49.7941301%"></stop>
            <stop stop-color="#FD7F54" offset="100%"></stop>
        </linearGradient>
        <linearGradient x1="50%" y1="0%" x2="50%" y2="100%" id="linearGradient-3">
            <stop stop-color="#FE5266" offset="0%"></stop>
            <stop stop-color="#FE5465" offset="51.6627956%"></stop>
            <stop stop-color="#FD7F54" offset="100%"></stop>
        </linearGradient>
        <linearGradient x1="50%" y1="0%" x2="50%" y2="100%" id="linearGradient-4">
            <stop stop-color="#FE5266" offset="0%"></stop>
            <stop stop-color="#FE5465" offset="51.6627956%"></stop>
            <stop stop-color="#FD7F54" offset="100%"></stop>
        </linearGradient>
        <linearGradient x1="50%" y1="0%" x2="50%" y2="100%" id="linearGradient-5">
            <stop stop-color="#FE5266" offset="0%"></stop>
            <stop stop-color="#FE5465" offset="51.6627956%"></stop>
            <stop stop-color="#FD7F54" offset="100%"></stop>
        </linearGradient>
        <linearGradient x1="50%" y1="0%" x2="50%" y2="99.7703758%" id="linearGradient-6">
            <stop stop-color="#FE5266" offset="0%"></stop>
            <stop stop-color="#FE5465" offset="49.7941301%"></stop>
            <stop stop-color="#FD7F54" offset="100%"></stop>
        </linearGradient>
        <linearGradient x1="50%" y1="0%" x2="50%" y2="100%" id="linearGradient-7">
            <stop stop-color="#FE5266" offset="0%"></stop>
            <stop stop-color="#FE5465" offset="51.6627956%"></stop>
            <stop stop-color="#FD7F54" offset="100%"></stop>
        </linearGradient>
        <linearGradient x1="50%" y1="0%" x2="50%" y2="100%" id="linearGradient-8">
            <stop stop-color="#FE5266" offset="0%"></stop>
            <stop stop-color="#FE5465" offset="51.6627956%"></stop>
            <stop stop-color="#FD7F54" offset="100%"></stop>
        </linearGradient>
        <linearGradient x1="50%" y1="0%" x2="50%" y2="100%" id="linearGradient-9">
            <stop stop-color="#FE5266" offset="0%"></stop>
            <stop stop-color="#FE5465" offset="51.6627956%"></stop>
            <stop stop-color="#FD7F54" offset="100%"></stop>
        </linearGradient>
        <linearGradient x1="50%" y1="0%" x2="50%" y2="99.7703758%" id="linearGradient-10">
            <stop stop-color="#FE5266" offset="0%"></stop>
            <stop stop-color="#FE5465" offset="49.7941301%"></stop>
            <stop stop-color="#FD7F54" offset="100%"></stop>
        </linearGradient>
        <linearGradient x1="50%" y1="0%" x2="50%" y2="100%" id="linearGradient-11">
            <stop stop-color="#FE5266" offset="0%"></stop>
            <stop stop-color="#FE5465" offset="51.6627956%"></stop>
            <stop stop-color="#FD7F54" offset="100%"></stop>
        </linearGradient>
        <linearGradient x1="50%" y1="0%" x2="50%" y2="100%" id="linearGradient-12">
            <stop stop-color="#FE5266" offset="0%"></stop>
            <stop stop-color="#FE5465" offset="51.6627956%"></stop>
            <stop stop-color="#FD7F54" offset="100%"></stop>
        </linearGradient>
        <linearGradient x1="50%" y1="0%" x2="50%" y2="100%" id="linearGradient-13">
            <stop stop-color="#FE5266" offset="0%"></stop>
            <stop stop-color="#FE5465" offset="51.6627956%"></stop>
            <stop stop-color="#FD7F54" offset="100%"></stop>
        </linearGradient>
        <linearGradient x1="50%" y1="0%" x2="50%" y2="99.7703758%" id="linearGradient-14">
            <stop stop-color="#FE5266" offset="0%"></stop>
            <stop stop-color="#FE5465" offset="49.7941301%"></stop>
            <stop stop-color="#FD7F54" offset="100%"></stop>
        </linearGradient>
        <linearGradient x1="50%" y1="0%" x2="50%" y2="100%" id="linearGradient-15">
            <stop stop-color="#FE5266" offset="0%"></stop>
            <stop stop-color="#FE5465" offset="51.6627956%"></stop>
            <stop stop-color="#FD7F54" offset="100%"></stop>
        </linearGradient>
        <linearGradient x1="50%" y1="0%" x2="50%" y2="100%" id="linearGradient-16">
            <stop stop-color="#FE5266" offset="0%"></stop>
            <stop stop-color="#FE5465" offset="51.6627956%"></stop>
            <stop stop-color="#FD7F54" offset="100%"></stop>
        </linearGradient>
        <linearGradient x1="50%" y1="0%" x2="50%" y2="100%" id="linearGradient-17">
            <stop stop-color="#FD7F54" offset="0%"></stop>
            <stop stop-color="#FE5465" offset="51.2853674%"></stop>
            <stop stop-color="#FE5266" offset="100%"></stop>
        </linearGradient>
    </defs>
    <g id="Page-1" stroke="none" stroke-width="1" fill="none" fill-rule="evenodd">
        <g id="Desktop-HD" transform="translate(-1272.000000, -1744.000000)">
            <g id="Group-43" transform="translate(1271.500000, 1743.000000)">
                <g id="Group-42">
                    <g id="Group-41">
                        <path d="M9.37051781,8.74305582 C9.7923836,8.29505177 10.1088744,7.95904872 10.3196244,7.7346746 C11.3221502,6.66936263 12.863991,5.06599927 14.8690426,2.93537533" id="Stroke-1" stroke="url(#linearGradient-1)" stroke-width="0.768"></path>
                        <path d="M21.1799793,16.4462698 C21.0263074,15.6313787 20.6457867,14.8905347 20.0900069,14.3026224 L17.3063512,11.3492934 L14.4476891,8.86257319 C14.5025719,8.91503878 17.0249854,11.5904118 17.0249854,11.5904118 L19.8262035,14.5630899 C20.3347841,15.0992808 20.6787164,15.7724032 20.8217775,16.516596 C20.8689767,16.7696215 20.8945887,17.0230192 20.8909299,17.2756726 C20.8909299,17.971865 20.7079872,18.6528014 20.3644209,19.2477835 C20.3055133,19.3523426 20.239654,19.4565296 20.1664769,19.5603445 C20.0567113,19.7095551 19.9359691,19.8543006 19.8079093,19.9886274 L14.1805928,25.8227268 C14.0891215,25.9157509 13.9903324,26.008775 13.8915434,26.0910083 C13.8586137,26.120776 13.8220252,26.1464506 13.7817778,26.1799393 L13.7378715,26.2138001 C13.1381855,26.6301759 12.4426374,26.8538059 11.7218433,26.8538059 C10.7778592,26.8538059 9.88144009,26.4738955 9.20089337,25.7858892 C7.75601217,24.3194573 7.71174005,21.893761 9.10576318,20.3756077 L9.73508596,19.6942992 L12.0913875,17.2496259 L9.39115374,14.4146235 C8.32276856,13.2983343 8.02274258,11.5751559 8.64474765,10.1355149 C8.69231275,10.0235139 8.7435367,9.91560598 8.8057372,9.80769802 C8.89354968,9.64434771 8.99599758,9.48806722 9.10210432,9.34667059 C9.17894025,9.24583247 9.25943502,9.1494595 9.34358865,9.05643541 C9.42774227,8.96676018 9.5118959,8.8815501 9.60336724,8.80340986 L9.61800265,8.788526 L10.532716,7.78721461 C9.99120569,8.00340261 9.49396752,8.34908016 9.07649235,8.80340986 C8.98136216,8.90350379 8.89354968,9.01178384 8.81305491,9.11969179 C8.69231275,9.27560018 8.58254715,9.44676452 8.48375811,9.62574289 C8.4215576,9.74072067 8.36301595,9.86388458 8.30813315,9.98667639 C7.62758642,11.5643651 7.95688322,13.4505217 9.12808218,14.6747188 L11.5791481,17.2496259 L9.46798966,19.4379248 L8.83903277,20.1225821 C7.31292503,21.785853 7.35683127,24.4422492 8.94513952,26.0500777 C9.69483857,26.8054333 10.6790701,27.2259023 11.7218433,27.2259023 C12.5158145,27.2259023 13.2841737,26.9803186 13.9574027,26.5114772 C13.9647204,26.5036632 13.9830147,26.4928724 14.0086267,26.4701745 C14.0488741,26.4404068 14.0891215,26.4072902 14.12571,26.3771504 C14.2318167,26.2878473 14.3379235,26.1877533 14.4403714,26.0831942 L20.0713467,20.2490949 C20.2103831,20.0998842 20.3421019,19.9436038 20.4591852,19.7802534 C20.5396799,19.6682524 20.612857,19.5532746 20.6823752,19.4338317 C21.0555783,18.7867561 21.2568152,18.0384702 21.2568152,17.2793936 C21.260474,17.0003213 21.2348621,16.721249 21.1799793,16.4462698" id="Fill-3" stroke="url(#linearGradient-3)" stroke-width="0.6" fill="url(#linearGradient-2)"></path>
                        <path d="M17.3635391,11.6079004 L14.7050162,8.83354967 C13.1957392,7.25846564 13.1818356,4.73118694 14.6728183,3.13787018 C16.1389209,1.57246066 18.5588865,1.5270649 20.0784083,3.03554367 C21.5975642,4.54588293 21.6418363,7.03781248 20.1771973,8.603222 L17.3635391,11.6079004 Z" id="Stroke-6" stroke="url(#linearGradient-4)" stroke-width="0.6912"></path>
                        <path d="M20.5494125,15.1417764 C20.968544,14.6908497 21.2829835,14.3526546 21.4923674,14.1268167 C22.4883954,13.0545549 24.0202428,11.4407316 26.0122987,9.29620794" id="Stroke-1" stroke="url(#linearGradient-5)" stroke-width="0.768" transform="translate(23.280856, 12.218992) rotate(450.000000) translate(-23.280856, -12.218992) "></path>
                        <path d="M18.1836877,13.506972 C18.0310119,12.6867648 17.6529575,11.9410877 17.1007799,11.34934 L14.3351665,8.37674414 L11.4950327,5.87380117 C11.5495598,5.92660904 14.0556243,8.61943561 14.0556243,8.61943561 L16.8386864,11.6115067 C17.3439707,12.1511956 17.6856737,12.8287093 17.8278076,13.577757 C17.8747009,13.8324332 17.9001469,14.087484 17.8965117,14.3417857 C17.8965117,15.0425198 17.7147548,15.7278985 17.3734153,16.3267622 C17.3148896,16.4320034 17.2494571,16.5368701 17.1767543,16.6413622 C17.0677001,16.7915463 16.9477406,16.9372361 16.8205107,17.0724392 L11.2296676,22.9445988 C11.1387891,23.0382298 11.0406404,23.1318607 10.9424917,23.2146305 C10.9097754,23.2445924 10.873424,23.2704346 10.8334375,23.3041417 L10.7898158,23.3382234 C10.1940166,23.7573156 9.50297678,23.9824044 8.78685448,23.9824044 C7.84898873,23.9824044 6.95837978,23.6000156 6.28224401,22.907521 C4.84672779,21.4315224 4.80274261,18.9900014 6.1877304,17.461944 L6.81297424,16.7761908 L9.15400348,14.315569 L6.47127121,11.4620717 C5.40981075,10.3385001 5.11172939,8.60408013 5.72970294,7.15504731 C5.77695975,7.04231562 5.82785169,6.9337037 5.88964904,6.82509178 C5.97689237,6.66067581 6.07867625,6.50337578 6.18409527,6.36105672 C6.26043318,6.25956075 6.34040622,6.16255907 6.42401441,6.0689281 C6.5076226,5.97866785 6.59123079,5.89290189 6.68210925,5.81425188 L6.6966498,5.79927092 L7.60543445,4.79142721 C7.06743394,5.00902557 6.57341861,5.35695824 6.1586493,5.81425188 C6.06413569,5.9149988 5.97689237,6.02398524 5.89691932,6.13259716 C5.77695975,6.28952266 5.66790559,6.46180364 5.56975685,6.64194961 C5.50795949,6.75767749 5.44979727,6.88164489 5.3952702,7.00523776 C4.71913442,8.59321894 5.04629689,10.4916804 6.20990475,11.7238639 L8.64508408,14.315569 L6.54760912,16.5181439 L5.9227288,17.2072678 C4.40651251,18.8813894 4.45013417,21.5551153 6.02814782,23.1734329 C6.77298771,23.9337163 7.75083999,24.3569283 8.78685448,24.3569283 C9.57567955,24.3569283 10.3390587,24.1097425 11.0079242,23.6378425 C11.0151944,23.6299775 11.0333701,23.6191163 11.0588161,23.5962703 C11.0988026,23.5663084 11.1387891,23.5329758 11.1751405,23.5026394 C11.2805595,23.4127536 11.3859786,23.3120067 11.4877624,23.2067655 L17.0822407,17.3346059 C17.220376,17.1844218 17.351241,17.0271218 17.4675654,16.8627058 C17.5475384,16.7499741 17.6202412,16.6342463 17.6893088,16.5140241 C18.060093,15.8627271 18.2600256,15.1095596 18.2600256,14.3455309 C18.2636607,14.064638 18.2382148,13.7837451 18.1836877,13.506972" id="Fill-3" stroke="url(#linearGradient-7)" stroke-width="0.6" fill="url(#linearGradient-6)" transform="translate(11.537398, 14.574178) rotate(450.000000) translate(-11.537398, -14.574178) "></path>
                        <path d="M22.3016284,22.3393542 L19.6603367,19.5469043 C18.160842,17.9615448 18.1470285,15.4177787 19.6283475,13.8140676 C21.0849475,12.2384457 23.4892281,12.1927538 24.9989012,13.7110735 C26.5082107,15.2312659 26.5521959,17.7394522 25.0970499,19.3150741 L22.3016284,22.3393542 Z" id="Stroke-6" stroke="url(#linearGradient-8)" stroke-width="0.6912" transform="translate(22.343378, 17.470513) rotate(450.000000) translate(-22.343378, -17.470513) "></path>
                        <path d="M16.280408,9.65477352 C16.7023679,9.20394097 17.0189291,8.86581626 17.229728,8.64002726 C18.2324798,7.56799144 19.7745539,5.9544014 21.7800575,3.81032975" id="Stroke-1" stroke="url(#linearGradient-9)" stroke-width="0.768" transform="translate(19.030233, 6.732552) rotate(45.000000) translate(-19.030233, -6.732552) "></path>
                        <path d="M19.0688055,15.5533069 C18.9182897,14.7362557 18.5414187,13.9942284 17.9893577,13.4061995 L15.2243566,10.4522582 L12.38307,7.96669076 C12.4376038,8.01914963 14.9431161,10.695075 14.9431161,10.695075 L17.7255597,13.6683715 C18.2307431,14.2046633 18.5713651,14.8788667 18.7115352,15.6250233 C18.7577561,15.8787212 18.7824585,16.1328624 18.7779874,16.3863519 C18.7757165,17.0848151 18.5911456,17.7685655 18.2467519,18.3666018 C18.1876942,18.4716929 18.1217084,18.5764331 18.0484298,18.6808238 C17.9385333,18.8308769 17.8177103,18.9764858 17.6896272,19.1116658 L12.0615173,24.983032 C11.970039,25.0766559 11.8712666,25.1703036 11.7725295,25.2531253 C11.7396094,25.2830968 11.7030557,25.3089738 11.6628295,25.3427021 L11.6189551,25.3768156 C11.0198543,25.7964931 10.325831,26.0231066 9.60737274,26.0254425 C8.66644779,26.0285017 7.774173,25.6502571 7.09807594,24.9622122 C5.66266056,23.4956794 5.62644425,21.0622142 7.02090175,19.5345912 L7.65040741,18.8490209 L10.007047,16.3887372 L7.32481147,13.5532381 C6.26352985,12.4367701 5.97009699,10.7089432 6.59478224,9.26259053 C6.64255852,9.15007004 6.69396845,9.0416441 6.75631936,8.93318259 C6.84438009,8.76901486 6.94700575,8.6118926 7.05322985,8.46969089 C7.13014569,8.36827484 7.21069396,8.27132665 7.2948783,8.1777264 C7.37905172,8.08748594 7.46321057,8.0017252 7.55464035,7.92303364 L7.56927689,7.9080538 L8.48429204,6.9005119 C7.94383145,7.11915998 7.44707714,7.46757651 7.02947293,7.9247411 C6.93432454,8.02546982 6.84644344,8.13438765 6.76585755,8.24290844 C6.64499813,8.39971668 6.53502993,8.57179506 6.43597723,8.75167738 C6.37360326,8.86723179 6.31484958,8.99098716 6.2597441,9.11435736 C5.57625662,10.6993978 5.89833383,12.5906396 7.06174406,13.8150344 L9.49646761,16.3903972 L7.38501296,18.5926758 L6.75586108,19.2816047 C5.22927367,20.9552467 5.26437277,23.6201654 6.84228917,25.2280912 C7.58709477,25.9834812 8.56676516,26.402132 9.60615901,26.3987526 C10.3975571,26.3961796 11.1642274,26.1473048 11.8368039,25.6747523 C11.8441234,25.6668891 11.8623936,25.6560038 11.8879966,25.6331489 C11.9282106,25.6031536 11.9684356,25.5697986 12.0050039,25.5394419 C12.1110581,25.4495036 12.2171474,25.3487393 12.3196044,25.2435072 L17.9513613,19.3721292 C18.0904339,19.2219812 18.2222355,19.0647641 18.3394722,18.9005015 C18.4200715,18.7878743 18.4933864,18.6722843 18.563069,18.5522265 C18.9371732,17.9018307 19.1401988,17.1504519 19.1426748,16.3888992 C19.1472321,16.1089048 19.1226135,15.8290052 19.0688055,15.5533069" id="Fill-3" stroke="url(#linearGradient-11)" stroke-width="0.6" fill="url(#linearGradient-10)" transform="translate(12.388824, 16.649642) rotate(45.000000) translate(-12.388824, -16.649642) "></path>
                        <path d="M22.0464528,15.9596907 L19.4055951,13.184906 C17.906347,11.6095754 17.9007321,9.07409809 19.3920802,7.47075224 C20.8585377,5.89548527 23.2708089,5.84209896 24.7804858,7.35057384 C26.289792,8.86091645 26.3257923,11.3608309 24.8607936,12.9360931 L22.0464528,15.9596907 Z" id="Stroke-6" stroke="url(#linearGradient-12)" stroke-width="0.6912" transform="translate(22.106891, 11.106517) rotate(45.000000) translate(-22.106891, -11.106517) "></path>
                        <path d="M3.86666667,12.9666907 C4.28570396,12.5185925 4.60007311,12.1825191 4.8094082,11.9580961 C5.80521017,10.8925581 7.33682429,9.28896148 9.32842823,7.15788554" id="Stroke-1" stroke="url(#linearGradient-13)" stroke-width="0.768" transform="translate(6.597547, 10.062288) rotate(-45.000000) translate(-6.597547, -10.062288) "></path>
                        <path d="M23.2319652,15.6020528 C23.0761333,14.7840056 22.6944292,14.039512 22.1385328,13.4478809 L19.3542648,10.4758973 L16.4967555,7.97180152 C16.5516316,8.02461611 19.0745974,10.7168904 19.0745974,10.7168904 L21.876434,13.708343 C22.3851154,14.2479311 22.7301287,14.9243637 22.8751537,15.6714476 C22.9230253,15.9254515 22.9493808,16.1797587 22.9465579,16.4332244 C22.9488288,17.1316876 22.7687002,17.8142523 22.428188,18.4100618 C22.3698124,18.514771 22.3045064,18.6190844 22.2319051,18.7230008 C22.1229819,18.8723424 22.0031032,19.0171688 21.8758965,19.1515187 L16.2858468,24.9864115 C16.1949754,25.0794426 16.0968099,25.17245 15.9986093,25.2546314 C15.9658834,25.2843895 15.9294972,25.3100293 15.8894895,25.3434968 L15.845836,25.3773257 C15.2494515,25.7931163 14.556887,26.0152216 13.8384288,26.0128857 C12.8975038,26.0098265 12.0027506,25.6257718 11.3221652,24.9333159 C9.87718312,23.4574182 9.82514214,21.023666 11.2096956,19.5050784 L11.8347565,18.823587 L14.1754477,16.3785756 L11.4747172,13.525575 C10.4061532,12.4021823 10.1014787,10.6724108 10.7167721,9.23008964 C10.7638177,9.11787744 10.8145237,9.0097835 10.8761706,8.90172514 C10.9631657,8.73812657 11.0647718,8.58166833 11.1700735,8.44015434 C11.2463315,8.3392363 11.326251,8.24280984 11.4098285,8.14975503 C11.4934169,8.06006001 11.5770198,7.97484471 11.6679399,7.89674602 L11.6824793,7.88186104 L12.5909621,6.88024784 C12.0519119,7.09538613 11.5574127,7.44057982 11.1427724,7.89503855 C11.048277,7.99515069 10.9611023,8.10349936 10.8812204,8.21149843 C10.7613781,8.36752408 10.6525265,8.53889102 10.5546415,8.71813304 C10.4930176,8.83328429 10.4350674,8.95666023 10.380763,9.07967471 C9.70756795,10.6603042 10.04195,12.5536804 11.2133466,13.7856662 L13.6648682,16.3769156 L11.5676896,18.5655107 L10.9430042,19.2503631 C9.42726759,20.9141136 9.4796964,23.5793169 11.0681019,25.1975373 C11.8178352,25.9577864 12.8002487,26.3828165 13.8396425,26.3861959 C14.6310407,26.3887689 15.3961087,26.1448743 16.0656267,25.6766853 C16.0728952,25.6688695 16.091095,25.6581028 16.1165499,25.6354139 C16.1565698,25.6056795 16.1965787,25.5725853 16.2329504,25.5424658 C16.3384219,25.4532152 16.4438583,25.3531386 16.5456332,25.2485705 L22.1393298,19.4136895 C22.2774289,19.2644428 22.408211,19.1080794 22.5243821,18.9445757 C22.6042506,18.8324702 22.6768155,18.7173545 22.7457188,18.5977472 C23.1156017,17.9497704 23.3137457,17.1996959 23.3112697,16.4381432 C23.3140064,16.1581725 23.2875671,15.8781069 23.2319652,15.6020528" id="Fill-3" stroke="url(#linearGradient-15)" stroke-width="0.6" fill="url(#linearGradient-14)" transform="translate(16.576005, 16.633232) rotate(-45.000000) translate(-16.576005, -16.633232) "></path>
                        <path d="M10.9727297,11.8624032 L8.31377282,9.07038731 C6.80424924,7.48527437 6.78214697,4.94970692 8.26310061,3.35602485 C9.71934571,1.7902604 12.1313208,1.75255904 13.6508387,3.27088268 C15.169998,4.79107167 15.222255,7.29127307 13.7674687,8.85704226 L10.9727297,11.8624032 Z" id="Stroke-6" stroke="url(#linearGradient-16)" stroke-width="0.6912" transform="translate(10.996062, 7.009433) rotate(-45.000000) translate(-10.996062, -7.009433) "></path>
                    </g>
                    <path d="M17.5,23 C19.0004385,23 24.6610883,23.7082938 26.2036398,23 C28.9194818,21.752966 28,18.465584 28,16 C28,14.6174338 26.2124297,14.2646058 25.0614523,13.1486687 C22.9940153,11.1441726 20.6112771,8.83494484 17.5,9 C12.6566219,9.25694418 10,12.1340068 10,16 C10,19.8659932 13.3578644,23 17.5,23 Z" id="Oval" fill="#FFFFFF"></path>
                </g>
                <text id="Group-Vis" fill="url(#linearGradient-17)" font-family="Helvetica" font-size="22" font-weight="normal">
                    <tspan x="8" y="24">Group Vis </tspan>
                </text>
            </g>
        </g>
    </g>
</svg>