<?xml version="1.0" encoding="UTF-8"?>
<svg width="42px" height="44px" viewBox="0 0 42 44" version="1.1" xmlns="http://www.w3.org/2000/svg" xmlns:xlink="http://www.w3.org/1999/xlink">
    <!-- Generator: Sketch 53 (72520) - https://sketchapp.com -->
    <title>Group 72</title>
    <desc>Created with Sketch.</desc>
    <defs>
        <filter x="-80.8%" y="-80.8%" width="261.5%" height="261.5%" filterUnits="objectBoundingBox" id="filter-1">
            <feOffset dx="0" dy="2" in="SourceAlpha" result="shadowOffsetOuter1"></feOffset>
            <feGaussianBlur stdDeviation="2" in="shadowOffsetOuter1" result="shadowBlurOuter1"></feGaussianBlur>
            <feColorMatrix values="0 0 0 0 0.796078431   0 0 0 0 0.796078431   0 0 0 0 0.796078431  0 0 0 1 0" type="matrix" in="shadowBlurOuter1" result="shadowMatrixOuter1"></feColorMatrix>
            <feMerge>
                <feMergeNode in="shadowMatrixOuter1"></feMergeNode>
                <feMergeNode in="SourceGraphic"></feMergeNode>
            </feMerge>
        </filter>
        <ellipse id="path-2" cx="13.1591589" cy="12.9113636" rx="12.5644393" ry="12.7537879"></ellipse>
        <filter x="-53.7%" y="-52.9%" width="207.4%" height="205.9%" filterUnits="objectBoundingBox" id="filter-3">
            <feOffset dx="0" dy="0" in="SourceAlpha" result="shadowOffsetOuter1"></feOffset>
            <feGaussianBlur stdDeviation="4.5" in="shadowOffsetOuter1" result="shadowBlurOuter1"></feGaussianBlur>
            <feColorMatrix values="0 0 0 0 0   0 0 0 0 0   0 0 0 0 0  0 0 0 0.0771059783 0" type="matrix" in="shadowBlurOuter1"></feColorMatrix>
        </filter>
    </defs>
    <g id="Page-1" stroke="none" stroke-width="1" fill="none" fill-rule="evenodd">
        <g id="Desktop-HD" transform="translate(-1819.000000, -1792.000000)">
            <g id="Group-72" transform="translate(1827.000000, 1800.000000)">
                <g id="Group-71">
                    <g id="Group-22" filter="url(#filter-1)">
                        <g id="Oval-6">
                            <use fill="black" fill-opacity="1" filter="url(#filter-3)" xlink:href="#path-2"></use>
                            <use fill="#f4e2b4" fill-rule="evenodd" xlink:href="#path-2"></use>
                        </g>
                    </g>
                </g>
                <g id="shijianzhou" transform="translate(6.240000, 4.160000)" fill="#b97841" fill-rule="nonzero">
                    <path d="M2.78852927,10.9256742 L2.78852927,8.02567917 C3.62510788,7.68843029 4.18269476,6.94659787 4.18269476,6.06990426 C4.18269476,5.19321065 3.62490959,4.45118639 2.78852927,4.18146402 L2.78852927,0.674497752 C2.78852927,0.269914203 2.50973583,0 2.09134738,0 C1.67295893,0 1.39416549,0.269722366 1.39416549,0.674497752 L1.39416549,4.18146402 C0.557586881,4.45118639 0,5.19301881 0,6.06990426 C0,6.9467897 0.55778517,7.68862213 1.39416549,7.95834449 L1.39416549,10.8583395 C0.557586881,11.1280619 0,11.8698943 0,12.7467798 C0,13.6236652 0.55778517,14.3654976 1.39416549,14.63522 L1.39416549,18.2097128 C1.39416549,18.6142963 1.67295893,18.8842105 2.09134738,18.8842105 C2.50973583,18.8842105 2.78852927,18.6144882 2.78852927,18.2097128 L2.78852927,14.7025547 C3.62510788,14.4328323 4.18269476,13.6909999 4.18269476,12.8141144 C4.18269476,11.937229 3.62510788,11.1955884 2.78852927,10.9256742 L2.78852927,10.9256742 Z M2.09134738,5.39540651 C2.50953754,5.39540651 2.78852927,5.66512887 2.78852927,6.06990426 C2.78852927,6.47467964 2.50973583,6.74440201 2.09134738,6.74440201 C1.67295893,6.74440201 1.39416549,6.47467964 1.39416549,6.06990426 C1.39416549,5.66512887 1.67315722,5.39540651 2.09134738,5.39540651 Z M2.09134738,13.4886122 C1.67315722,13.4886122 1.39416549,13.2188898 1.39416549,12.8141144 C1.39416549,12.409339 1.67295893,12.1396167 2.09134738,12.1396167 C2.50973583,12.1396167 2.78852927,12.409339 2.78852927,12.8141144 C2.78852927,13.2188898 2.50973583,13.4886122 2.09134738,13.4886122 Z M13.8998161,13.6804489 L7.17744394,13.6804489 C6.75727089,13.6804489 6.33709785,13.9501712 6.33709785,14.3549466 C6.33709785,14.759722 6.67319662,15.0294444 7.17744394,15.0294444 L13.9000144,15.0294444 C14.3201874,15.0294444 14.7403605,14.759722 14.7403605,14.3549466 C14.7403605,13.9501712 14.4042617,13.6804489 13.8998161,13.6804489 Z M15.5809048,4.23843951 L7.17744394,4.23843951 C6.75727089,4.23843951 6.33709785,4.50816188 6.33709785,4.91293727 C6.33709785,5.31771265 6.67319662,5.58743502 7.17744394,5.58743502 L15.5809048,5.58743502 C16.0008796,5.58743502 16.4210526,5.31771265 16.4210526,4.91293727 C16.4210526,4.50816188 16.0849539,4.23843951 15.5809048,4.23843951 Z M13.8998161,8.28504235 C14.3199891,8.28504235 14.7401622,8.01531999 14.7401622,7.6105446 C14.7401622,7.20576922 14.4042617,6.93604685 13.8998161,6.93604685 L7.17744394,6.93604685 C6.75727089,6.93604685 6.33709785,7.20576922 6.33709785,7.6105446 C6.33709785,8.01531999 6.67319662,8.28504235 7.17744394,8.28504235 L13.8998161,8.28504235 L13.8998161,8.28504235 Z M15.5809048,10.9826497 L7.17744394,10.9826497 C6.75727089,10.9826497 6.33709785,11.2523721 6.33709785,11.6571474 C6.33709785,12.0619228 6.67319662,12.3316452 7.17744394,12.3316452 L15.5809048,12.3316452 C16.0008796,12.3316452 16.4210526,12.0619228 16.4210526,11.6571474 C16.4210526,11.2523721 16.0849539,10.9826497 15.5809048,10.9826497 Z" id="Shape"></path>
                </g>
            </g>
        </g>
    </g>
</svg>